<?xml version="1.0" encoding="utf-8"?>
<!-- Generator: Adobe Illustrator 24.0.0, SVG Export Plug-In . SVG Version: 6.00 Build 0)  -->
<svg version="1.1" id="Ñëîé_1" xmlns="http://www.w3.org/2000/svg" xmlns:xlink="http://www.w3.org/1999/xlink" x="0px" y="0px"
	 viewBox="0 0 720 463" style="enable-background:new 0 0 720 463;" xml:space="preserve">
<style type="text/css">
	.st0{fill:#C8A1E2;}
	.st1{fill:#C491E5;}
	.st2{fill:#97CEC6;}
	.st3{fill:#40BCB1;}
	.st4{fill:#F2B5AD;}
	.st5{fill:#ED9E94;}
	.st6{fill:#255880;}
	.st7{fill:#2D6C9C;}
	.st8{fill:#F4A086;}
	.st9{fill-rule:evenodd;clip-rule:evenodd;fill:#29477F;}
	.st10{fill:#D5E5FD;}
	.st11{fill:#F7B690;}
	.st12{fill:#3C79A6;}
	.st13{fill-rule:evenodd;clip-rule:evenodd;fill:#18898D;}
	.st14{fill:#ACCCFD;}
	.st15{fill:#8D44AD;}
	.st16{fill-rule:evenodd;clip-rule:evenodd;fill:#34373C;}
	.st17{fill:#4184B5;}
	.st18{fill:#B0BBD9;}
	.st19{fill:#F0AD82;}
	.st20{fill:#C27C50;}
	.st21{fill:#FFFFFF;}
	.st22{fill-rule:evenodd;clip-rule:evenodd;fill:#FDD247;}
	.st23{fill:#A2D1EB;}
	.st24{fill:#979DFE;}
	.st25{fill-rule:evenodd;clip-rule:evenodd;fill:#40BCB1;}
	.st26{fill:#C6E7F4;}
	.st27{fill:#21A2F3;}
	.st28{fill:#34373C;}
	.st29{fill-rule:evenodd;clip-rule:evenodd;fill:#052A6E;}
	.st30{fill-rule:evenodd;clip-rule:evenodd;fill:#66BCD5;}
	.st31{fill-rule:evenodd;clip-rule:evenodd;fill:#21A2F3;}
	.st32{fill:#BCCACE;}
	.st33{fill:#557A8E;}
	.st34{fill:#616D7D;}
	.st35{fill:#758798;}
	.st36{fill:#F7F6F0;}
	.st37{fill:#CC346F;}
	.st38{fill:#70A0FE;}
	.st39{fill-rule:evenodd;clip-rule:evenodd;fill:#818BEA;}
	.st40{fill-rule:evenodd;clip-rule:evenodd;fill:#CE3929;}
	.st41{fill:#A0B5BF;}
	.st42{fill-rule:evenodd;clip-rule:evenodd;fill:#FF5B3F;}
	.st43{fill:#6370C7;}
	.st44{fill:#828FEB;}
	.st45{fill:#9797C2;}
	.st46{fill:#4B4B6D;}
	.st47{fill:#6D2E8E;}
	.st48{fill:#62C1C5;}
	.st49{fill:#FF5B3F;}
	.st50{fill-rule:evenodd;clip-rule:evenodd;fill:#0A3C5F;}
	.st51{fill-rule:evenodd;clip-rule:evenodd;fill:#222B54;}
	.st52{fill:#EA6957;}
	.st53{fill:none;stroke:#231F20;stroke-miterlimit:10;}
</style>
<g>
	<rect x="15.7" y="336" class="st0" width="102.3" height="102.1"/>
	<rect x="118" y="233.9" class="st1" width="102.3" height="204.2"/>
	<rect x="220.3" y="156.5" class="st2" width="102.3" height="281.6"/>
	<rect x="322.5" y="127.5" class="st3" width="102.3" height="310.7"/>
	<rect x="424.8" y="187.7" class="st4" width="102.3" height="250.5"/>
	<rect x="527.1" y="69.4" class="st5" width="102.3" height="368.7"/>
</g>
<g>
	<path class="st6" d="M294.6,144.8c-1.5,1.2-3.6,1.4-5.5,1.4c-15.7,0-24.8-5.1-22.6-12.3c2.2-7.4,16.3-6.2,23.6-3.8
		c1.6,0.5,3.9,1,5,2.5C296.7,134.7,298.3,141.9,294.6,144.8z"/>
	<path class="st7" d="M272.3,137.7c-6.5,0.1-13.4,1.7-19.8,3.9c-3.9,1.3-7.7,2.9-11.4,4.8c-1.5,0.8-3.3,2.5-3.8,4.3
		c-0.2,0.8-0.5,6.2,1.4,6.2h35.8C277.2,156.8,281.9,137.6,272.3,137.7z"/>
	<g>
		<path class="st8" d="M241.8,198.4c-1.9,0.3-3.8,0.1-5.5-0.4c0.4-2.2,0.7-4.3,1.1-6.5c0-0.3,0.1-0.6,0.3-0.8
			c0.3-0.3,0.7-0.5,1.1-0.5c1.5-0.3,3.8-0.3,3.7,1.5C242.2,193.9,242,196.2,241.8,198.4z"/>
		<path class="st7" d="M235.7,151.1c1.9-3.8,8.3-7.9,10.9-0.8c4.1,11.4-1.1,28.4-3.5,41.5h-6.3C236.4,190.6,234.7,153.3,235.7,151.1
			z"/>
		<path class="st9" d="M245.1,197.5c-0.7-0.5-2.4-5-3.6-4.4c-0.7,0.3-0.8,1.6-1.2,2.1c-0.3,0.4-1.3,0.7-1.7,0.9l-0.9-1.3
			c-3.5,1.4-1,5.4-4.5,6.9c-0.8,0.3-1.7,0.6-2.5,1.1c-0.7,0.5-1.2,1.6-0.8,2.4c0.2,0.3,0.4,0.5,0.7,0.7l11.2-4.7
			c0,0,0.2-2.2-0.1-2.5c0.4,0.2,1.4,1.6,1.8,1.7L245.1,197.5z"/>
	</g>
	<g>
		<path class="st7" d="M271.6,95.7c-0.7-0.8-5.6-3.3-7.1,2.7c0,0-2.2,28.1-2.2,28.1c1.4,4.7,7.6,5.9,10.3-0.8
			C273.9,122.3,275.7,100.2,271.6,95.7z"/>
		<path class="st10" d="M248.9,135.9c-0.4,1.1,1.5,2.7,2.6,3.3c0.3,0.2,2.4-1,5.1-2l-2.5-4.5C251.9,134.3,249,135.7,248.9,135.9z"/>
		<path class="st7" d="M271.2,127.4c1.4-4.7-4.7-10.9-9.6-3.5c-1.2,1.8-8.4,8.9-8.4,8.9l1.8,6.6
			C260.4,137.5,270.2,130.7,271.2,127.4z"/>
		<path class="st11" d="M250,135.6c-0.8-0.7-1.8-1.3-2.9-1.2c-0.9,0.1-1.8,0.6-2.4,1.4c-0.6,0.7-1,1.6-1.3,2.5
			c-0.2,0.6-0.4,1.3-0.3,2c0.2,0.6,0.9,1.2,1.5,1c0.7-0.3,0.9-1.4,1.6-1.7c0.7-0.3,1.4,0.5,2.1,0.9c1.1,0.6,2.9,0.3,3.4-1
			C252.4,138.1,250.9,136.5,250,135.6z"/>
	</g>
	<path class="st12" d="M265.7,95.9c-1.6,2.4-0.8,7.9-0.4,10.7c0.9,5.8-0.5,35.3-0.6,36.2c-0.1,0.9,0.3,1.9,1.3,2.4
		c0.5,0.2,1.2,0.2,1.8,0.2c8.2-0.1,21.3-0.1,29.6-0.2c0.5,0,1.1,0,1.6-0.3c1-0.6,0.6-2,0.3-3c-2.4-6.9-3.6-13.8-1.4-20.7
		c2.1-6.9,4.4-15.1,3.1-22.2c-1-5.4-8.3-12.1-20.1-12.1C272.4,86.9,267.1,93.7,265.7,95.9z"/>
	<path class="st13" d="M307.4,115.2c0,0,0,0.1,0,0.1C307.4,115.3,307.4,115.3,307.4,115.2z"/>
	<path class="st14" d="M274,128.9c1.5-7.9,3-15.8,4.8-23c1.7-6.8,5.8-11.6,10.9-16c-4.2-3.3-11.6-3.6-15.3,0.7
		c-4.5,5.3-3.1,15-2.9,21.4C271.7,117.1,273.2,128.9,274,128.9z"/>
	<path class="st15" d="M279,93.1c0.6-0.9,1.4-1.8,1.2-2.8c-0.1-0.7-0.7-1.2-1.4-1.3c-2.5-0.4-1.4,2.4-1,3.6
		c-2.4,3.6-5.3,11.2-6.3,20.2c0.3,5.4,1.6,16.2,2.4,16.2c1-5.4,2.1-10.8,3.2-15.9C277.4,107,277.9,94.7,279,93.1z"/>
	<g>
		<path class="st16" d="M272.1,68.7c0.4-1.2,4.8-6.3,8.7-3.3c1.4,1.1,2.9,3.3,3.4,5c0.6,2.2,2.2,9.6,4,9.8c-1.2,1.1-2.9,1.5-4.4,1.2
			c-1.6-0.3-3-1.3-3.7-2.7c-0.8-1.6-0.9-3.6-2.1-4.9c-0.8-0.8-1.8-1.1-2.9-1.4c-0.8-0.3-2.1-0.4-2.6-1.1
			C271.9,70.7,271.8,69.5,272.1,68.7z"/>
		<path class="st16" d="M268.3,74c-0.3-0.7-0.4-1.5-0.2-2.2c0.4-1.1,1.7-1.7,3-1.8c0.7,0,1.4,0.1,1.7,0.7c0.3,0.5,0.1,1.1-0.1,1.6
			c-0.4,1.2-1,2.9-2,3.8C269.6,77.2,268.6,74.8,268.3,74z"/>
		<path class="st8" d="M277.4,78.6c0.8-3.6,3.5-4.4,5.1-3.5c1,6.7,2,9.6,4.6,13.3c-3.3,2.1-8.8,1.7-10,0
			C277.1,87.8,277,80.5,277.4,78.6z"/>
		<path class="st11" d="M278.3,70.5c-3.1-2.5-7.8-0.9-8.8,3.2c-0.9,3.7,2.4,10.5,4.1,11.7c3,2.1,7.6-2,7.9-4.1
			C281.9,78.1,280.8,72.6,278.3,70.5z"/>
		<path class="st16" d="M269.2,74.6c0.3,0.8,0.8,1.5,1,2.3c0.2,0.8,0.2,1.8-0.4,2.4c0.1-0.8-0.3-1.5-0.8-2.1
			c-0.5-0.6-1.1-1.1-1.6-1.7c-1-1.3-1.3-3.2-0.8-4.8c0.5-1.6,1.9-2.9,3.5-3.3c0.9-0.2,1.9-0.2,2.7,0.2c0.8,0.5,1.3,1.5,1,2.4
			c-0.3,0.7-1,1.2-1.7,1.4c-0.6,0.2-1-0.1-1.5-0.1C268.7,71.3,268.7,73.4,269.2,74.6z"/>
		<path class="st11" d="M283.7,75.2c0.3,0.9,0.2,1.8-0.2,2.6c-1.2,2.3-3.3,0-3.3-1.7C280.1,74,282.9,72.8,283.7,75.2z"/>
		<path class="st16" d="M272.5,70.6c0.3,0.6,2.5,0.7,3.1,0.9c0.7,0.2,1.4,0.3,1.9,0.7c0.7,0.5,1.1,1.4,1.3,2.2
			c0.2,0.9,0.3,1.8,0.7,2.6c0.4,0.8,1.1,1.5,1.9,1.6c-0.7-0.6-0.8-1.6-0.7-2.4c0.1-0.9,0.5-1.7,0.6-2.6c0.2-1.7-0.6-3.4-2-4.4
			c-1-0.7-3.1-1.5-4.3-1.4C274.1,67.9,271.7,69.2,272.5,70.6z"/>
	</g>
	<path class="st10" d="M275.5,91.8c0.5-0.4,1-0.8,1.6-1.2c0.4-0.3,0.8-0.6,1.2-0.5c0.4,0,0.8,0.4,1.1,0.7c0.5,0.6,1,1.2,1.6,1.7
		c0.2,0.3,0.5,0.6,0.9,0.6c0.5,0.1,0.9-0.2,1.3-0.5c1.7-1.3,3.2-2.7,4.7-4.2c0.1-0.1,0.3-0.3,0.3-0.5c0-0.2-0.1-0.3-0.2-0.4
		c-0.7-0.8-1.3-1.6-2-2.4c-1.4,0.7-2.9,1.4-4.5,1.6c-1.2,0.2-2.5,0-3.7-0.5c-0.2-0.1-0.5-0.4-0.7-0.3c-0.2,0.1-0.3,0.8-0.3,1
		c-0.2,0.8-0.4,1.5-0.6,2.3C275.9,90.1,275.7,90.9,275.5,91.8z"/>
	<g>
		<path class="st6" d="M275.7,128.9c0.1,0,0.1,0,0.2-0.1c3.8-7.2,8.8-13.6,15-19c0,0,0.1-0.1,0.1-0.1c0-0.1,0-0.1-0.1-0.1l-3.8-2.7
			l3.6-1.2c0.1,0,0.1-0.1,0.1-0.1c1.3-5.2,1.6-9.7-0.6-15c0-0.1-0.1-0.1-0.2-0.1c-0.1,0-0.1,0.1-0.1,0.2c2.1,5.1,1.8,9.5,0.6,14.6
			l-3.8,1.3c-0.1,0-0.1,0.1-0.1,0.1c0,0.1,0,0.1,0.1,0.2l3.9,2.8c-6.1,5.4-11.1,11.7-14.9,18.9C275.5,128.8,275.5,128.9,275.7,128.9
			C275.7,128.9,275.7,128.9,275.7,128.9z"/>
	</g>
	<g>
		<path class="st6" d="M272.8,129.1C272.8,129.1,272.9,129.1,272.8,129.1c0.2-0.1,0.2-0.2,0.2-0.3c-3.3-6.2-5.3-13.2-5.9-20.2
			l2.1-0.8c0.1,0,0.1-0.1,0.1-0.2c0-0.1-0.1-0.2-0.2-0.2c-0.9,0-1.6-0.9-1.8-1.6c-0.3-0.9-0.1-1.8,0.1-2.7c0.9-4.2,2.9-8,5.8-11.1
			c0.1-0.1,0.1-0.2,0-0.3c-0.1-0.1-0.2-0.1-0.3,0c-2.9,3.2-5,7.1-5.9,11.3c-0.2,0.9-0.4,2-0.1,2.9c0.2,0.7,0.7,1.5,1.5,1.8l-1.6,0.6
			c-0.1,0-0.1,0.1-0.1,0.2c0.6,7.1,2.6,14.2,5.9,20.5C272.7,129.1,272.7,129.1,272.8,129.1z"/>
	</g>
	<g>
		<path class="st17" d="M299.9,95.6c-0.8-0.8-6-3.3-6.7,2.7c0,0,1.7,28.2,1.7,28.2c2,4.8,8.4,5.9,10.1-0.8
			C305.9,122.3,304.6,100.1,299.9,95.6z"/>
		<path class="st10" d="M282,135.9c-0.4,1.1,1.5,2.7,2.6,3.3c0.3,0.2,2.4-1,5.1-2l-2.5-4.5C285,134.3,282.1,135.7,282,135.9z"/>
		<path class="st17" d="M304.3,127.4c1.4-4.7-4.7-10.9-9.6-3.5c-1.2,1.8-8.4,8.9-8.4,8.9l1.8,6.6
			C293.5,137.5,303.3,130.7,304.3,127.4z"/>
		<path class="st11" d="M283.1,135.6c-0.8-0.7-1.8-1.3-2.9-1.2c-0.9,0.1-1.8,0.6-2.4,1.4c-0.6,0.7-1,1.6-1.3,2.5
			c-0.2,0.6-0.4,1.3-0.3,2c0.2,0.6,0.9,1.2,1.5,1c0.7-0.3,0.9-1.4,1.6-1.7c0.7-0.3,1.4,0.5,2.1,0.9c1.1,0.6,2.9,0.3,3.4-1
			C285.5,138.1,284,136.5,283.1,135.6z"/>
	</g>
	<path class="st7" d="M293.8,141.6c-6.5,0-12.6,0-19.8,0c-3.9,1.3-7.7,2.9-11.4,4.8c-1.5,0.8-3.3,2.5-3.8,4.3
		c-0.2,0.8-0.5,6.2,1.4,6.2h35.8C298.7,156.8,303.2,141.6,293.8,141.6z"/>
	<g>
		<path class="st8" d="M263.3,198.4c-1.9,0.3-3.8,0.1-5.5-0.4c0.4-2.2,0.7-4.3,1.1-6.5c0-0.3,0.1-0.6,0.3-0.8
			c0.3-0.3,0.7-0.5,1.1-0.5c1.5-0.3,3.8-0.3,3.7,1.5C263.8,193.9,263.5,196.2,263.3,198.4z"/>
		<path class="st7" d="M257.3,151.1c1.9-3.8,8.3-7.9,10.9-0.8c4.1,11.4-1.1,28.4-3.5,41.5h-6.3C258,190.6,256.2,153.3,257.3,151.1z"
			/>
		<path class="st9" d="M266.6,197.5c-0.7-0.5-2.4-5-3.6-4.4c-0.7,0.3-0.8,1.6-1.2,2.1c-0.3,0.4-1.3,0.7-1.7,0.9l-0.9-1.3
			c-3.5,1.4-1,5.4-4.5,6.9c-0.8,0.3-1.7,0.6-2.5,1.1c-0.7,0.5-1.2,1.6-0.8,2.4c0.2,0.3,0.4,0.5,0.7,0.7l11.2-4.7
			c0,0,0.2-2.2-0.1-2.5c0.4,0.2,1.4,1.6,1.8,1.7L266.6,197.5z"/>
	</g>
	<g>
		<path class="st6" d="M272.7,144.1c1.5,0,2.5-1.2,2.3-2.6l-3.4-24.1c-0.2-1.5-1.6-2.6-3-2.6h-32.4c-1.5,0-2.5,1.2-2.3,2.6l3.4,24.1
			c0.2,1.4,1.6,2.6,3,2.6H272.7z"/>
		<path class="st6" d="M289.8,140.5h-19v3.5h19c1,0,1.8-0.8,1.8-1.8l0,0C291.5,141.3,290.7,140.5,289.8,140.5z"/>
		<path class="st18" d="M270.5,144.1c1.5,0,2.5-1.2,2.3-2.6l-3.4-24.1c-0.2-1.5-1.6-2.6-3-2.6H234c-1.5,0-2.5,1.2-2.3,2.6l3.4,24.1
			c0.2,1.4,1.6,2.6,3,2.6H270.5z"/>
	</g>
</g>
<g>
	<polygon class="st19" points="140.5,122.4 130.9,233.9 132.8,233.9 142.4,122.4 	"/>
	<path class="st19" d="M155.9,233.9h1.9l-3.6-48.9h-1.9L155.9,233.9z M196.5,185l3.6,48.9h1.9l-3.6-48.9H196.5z"/>
	<polygon class="st20" points="207.1,202.2 146,202.2 139.4,113.6 200.5,113.6 	"/>
	<polygon class="st21" points="147.8,200.3 141.4,115.5 198.8,115.5 205.1,200.3 	"/>
	<g>
		<polygon class="st22" points="159.5,180.1 151.7,180.1 151.1,172.3 159,172.3 		"/>
		<path class="st23" d="M151.9,182.4l0.1,1.3h12.7l-0.1-1.3H151.9z M152.2,186.2h12.7l-0.1-1.3h-12.7L152.2,186.2z M152.3,188.8H165
			l-0.1-1.3h-12.7L152.3,188.8z M152.5,191.3h12.7l-0.1-1.3h-12.7L152.5,191.3z M152.7,193.8h6.2l-0.1-1.3h-6.2L152.7,193.8z"/>
		<g>
			<polygon class="st24" points="176.5,180.1 168.6,180.1 168,172.3 175.9,172.3 			"/>
			<path class="st23" d="M168.8,182.4l0.1,1.3h12.7l-0.1-1.3H168.8z M169.1,186.2h12.7l-0.1-1.3H169L169.1,186.2z M169.3,188.8h12.7
				l-0.1-1.3h-12.7L169.3,188.8z M169.4,191.3h12.7l-0.1-1.3h-12.7L169.4,191.3z M169.6,193.8h6.2l-0.1-1.3h-6.2L169.6,193.8z"/>
		</g>
		<g>
			<polygon class="st25" points="193.4,180.1 185.5,180.1 184.9,172.3 192.8,172.3 			"/>
			<path class="st23" d="M185.7,182.4l0.1,1.3h12.7l-0.1-1.3H185.7z M186,186.2h12.7l-0.1-1.3h-12.7L186,186.2z M186.2,188.8h12.7
				l-0.1-1.3h-12.7L186.2,188.8z M186.3,191.3H199l-0.1-1.3h-12.7L186.3,191.3z M186.5,193.8h6.2l-0.1-1.3h-6.2L186.5,193.8z"/>
		</g>
	</g>
	<g>
		<g>
			<polygon class="st23" points="148.4,136.1 148.4,136.3 194.9,136.3 194.9,136.1 			"/>
			<polygon class="st23" points="148.7,140.4 195.2,140.4 195.2,140.2 148.7,140.2 			"/>
			<polygon class="st23" points="149,144.5 195.5,144.5 195.5,144.2 149,144.2 			"/>
			<polygon class="st23" points="149.3,148.5 195.8,148.5 195.8,148.3 149.3,148.3 			"/>
			<polygon class="st23" points="149.7,152.6 196.1,152.6 196.1,152.4 149.6,152.4 			"/>
			<polygon class="st23" points="150,156.7 196.4,156.7 196.4,156.5 149.9,156.5 			"/>
			<polygon class="st23" points="150.3,160.8 196.7,160.8 196.7,160.5 150.2,160.5 			"/>
		</g>
		<path class="st25" d="M150.2,159.4l6.4-5.9c0.7-0.6,1.8-0.6,2.6,0l1.8,1.5c0.8,0.6,1.9,0.6,2.6,0h0c0.7-0.6,1.8-0.6,2.6,0l2.6,2.1
			c0.8,0.6,1.9,0.6,2.6,0l7-6.5c0.7-0.6,1.8-0.6,2.6,0l3.7,3c0.8,0.6,1.9,0.6,2.6,0l1.2-1.1c0.7-0.6,1.8-0.6,2.6,0l5.2,4.3l0.6,8.2
			h-46.5L150.2,159.4z"/>
		<path class="st24" d="M179.9,145.9h-7.2c-0.9,0-1.7-0.7-1.8-1.7l0,0c-0.1-0.9,0.6-1.7,1.5-1.7h7.2c0.9,0,1.7,0.7,1.8,1.7l0,0
			C181.5,145.2,180.8,145.9,179.9,145.9z"/>
		<path class="st24" d="M193.7,141.9h-7.2c-0.9,0-1.7-0.7-1.8-1.7l0,0c-0.1-0.9,0.6-1.7,1.5-1.7h7.2c0.9,0,1.7,0.7,1.8,1.7l0,0
			C195.3,141.2,194.6,141.9,193.7,141.9z"/>
		<path class="st24" d="M167.2,150H160c-0.9,0-1.7-0.7-1.8-1.7l0,0c-0.1-0.9,0.6-1.7,1.5-1.7h7.2c0.9,0,1.7,0.7,1.8,1.7l0,0
			C168.8,149.3,168.1,150,167.2,150z"/>
	</g>
	<path class="st23" d="M184.3,122.4H157l0.1,1.7h27.4L184.3,122.4z M147.9,125.7l0.1,1.7h46l-0.1-1.7H147.9z M152.9,130.6h36.7
		l-0.1-1.7h-36.7L152.9,130.6z"/>
</g>
<g>
	<g>
		<path class="st26" d="M404.6,137.2h-46.5c-0.8,0-1.3-0.7-1-1.5l8.9-27c0.3-0.8,1.2-1.5,2-1.5h46.5c0.8,0,1.3,0.7,1,1.5l-8.9,27
			C406.4,136.5,405.5,137.2,404.6,137.2z"/>
		<path class="st27" d="M415,110.3c-2.4,1.5-4.9,3-7.3,4.5c-2.5,1.5-4.9,2.9-7.4,4.3c-2.5,1.4-5,2.8-7.5,4.1l-3.8,2l-3.8,2l-0.5,0.3
			l-0.4-0.4c-1.6-1.4-3.2-2.7-4.8-4.1c-1.6-1.4-3.2-2.8-4.8-4.2c-1.6-1.4-3.2-2.8-4.7-4.2c-1.6-1.4-3.1-2.9-4.6-4.3
			c1.7,1.2,3.4,2.5,5.1,3.8c1.7,1.3,3.4,2.6,5,3.9c1.7,1.3,3.3,2.6,5,3.9c1.6,1.3,3.3,2.6,4.9,4l-0.9-0.1l3.8-2l3.8-2
			c2.5-1.3,5.1-2.6,7.6-3.9c2.5-1.3,5.1-2.6,7.7-3.8C409.8,112.7,412.4,111.5,415,110.3z"/>
	</g>
	<g>
		<path class="st26" d="M353.5,120.9h-21.3c-0.4,0-0.6-0.3-0.5-0.7l4.1-12.4c0.1-0.4,0.5-0.7,0.9-0.7h21.3c0.4,0,0.6,0.3,0.5,0.7
			l-4.1,12.4C354.3,120.6,353.9,120.9,353.5,120.9z"/>
		<path class="st27" d="M358.3,108.6c-1,0.8-2.1,1.5-3.2,2.3c-1.1,0.7-2.2,1.4-3.3,2.1c-1.1,0.7-2.3,1.3-3.4,2
			c-1.1,0.6-2.3,1.3-3.5,1.9l-0.5,0.3l-0.4-0.4c-0.7-0.6-1.5-1.3-2.2-1.9c-0.7-0.6-1.4-1.3-2.1-2c-0.7-0.7-1.4-1.3-2.1-2
			c-0.7-0.7-1.3-1.4-2-2.1c0.8,0.5,1.7,1,2.5,1.6c0.8,0.5,1.6,1.1,2.4,1.7c0.8,0.6,1.6,1.1,2.3,1.7c0.8,0.6,1.5,1.2,2.3,1.8l-1-0.1
			c1.1-0.6,2.3-1.3,3.5-1.9c1.2-0.6,2.3-1.2,3.5-1.8c1.2-0.6,2.4-1.1,3.6-1.6C355.8,109.5,357,109,358.3,108.6z"/>
	</g>
	<g>
		<path class="st26" d="M389.2,99.7h-30.6c-0.6,0-0.9-0.4-0.7-1l5.8-17.8c0.2-0.6,0.8-1,1.3-1h30.6c0.6,0,0.9,0.4,0.7,1l-5.8,17.8
			C390.3,99.2,389.7,99.7,389.2,99.7z"/>
		<path class="st27" d="M396,82c-1.5,1.1-3.1,2.1-4.7,3.1c-1.6,1-3.2,1.9-4.8,2.9c-1.6,0.9-3.3,1.9-4.9,2.8l-2.5,1.4l-2.5,1.3
			l-0.5,0.3l-0.4-0.4c-1.1-0.9-2.1-1.8-3.2-2.7c-1.1-0.9-2.1-1.8-3.1-2.8c-1-0.9-2-1.9-3-2.9c-1-1-2-1.9-3-3
			c1.2,0.8,2.3,1.6,3.4,2.4c1.1,0.8,2.2,1.6,3.4,2.5c1.1,0.8,2.2,1.7,3.3,2.5c1.1,0.9,2.2,1.7,3.3,2.6l-0.9-0.1l2.5-1.4l2.5-1.3
			c1.7-0.9,3.3-1.7,5-2.6c1.7-0.8,3.4-1.6,5.1-2.4C392.5,83.5,394.2,82.7,396,82z"/>
	</g>
</g>
<g>
	<ellipse class="st28" cx="38.1" cy="461.1" rx="38.3" ry="1"/>
	<ellipse class="st28" cx="214.7" cy="461.4" rx="161" ry="1.5"/>
	<ellipse class="st28" cx="542" cy="461.3" rx="136.8" ry="1.4"/>
</g>
<g>
	<g>
		<path class="st29" d="M49.3,401.3c0.8,2.5,2,5.2,4.2,5.9c1.5,0.5,6.5-2.5,7.5-3.8c1.1-1.2,6.8-59.6,5.3-63.2
			c-2-4.8-24.2,1.8-24.7,10.1c-0.6,10.6,0.8,21.8,2.8,32.3C45.7,389,47.3,395.3,49.3,401.3z"/>
		<path class="st8" d="M10.6,449.2c2.1,1.1,4.4,1.7,6.8,1.8c0.8-2.6,1.5-5.3,2.3-7.9c0.1-0.3,0.2-0.7,0.1-1c-0.1-0.5-0.6-0.8-1-1.1
			c-1.7-0.9-4.4-2-5.2,0.2C12.5,443.8,11.6,446.5,10.6,449.2z"/>
		<path class="st8" d="M53.6,455.5c2.3,0.3,4.7,0.2,7-0.6c-0.1-2.7-0.2-5.5-0.3-8.2c0-0.3,0-0.7-0.2-1c-0.3-0.4-0.8-0.6-1.3-0.7
			c-1.9-0.3-4.8-0.4-4.9,1.9C53.7,449.8,53.6,452.7,53.6,455.5z"/>
		<path class="st29" d="M61.7,394.6c-2.3-4.9-9.2-8.2-13.5,0.2c-6.6,12.8,4.8,36.8,4.8,52.3h8C61.4,445.7,63,397.3,61.7,394.6z"/>
		<path class="st9" d="M31.3,354.6c1.9,1.5,4.5,1.8,6.9,1.8c19.8,0,28.5-4.7,28.5-15.5c0-9.7-20.5-7.8-29.8-4.8
			c-2,0.6-4.9,1.3-6.3,3.1C28.7,341.8,26.6,350.8,31.3,354.6z"/>
		<path class="st8" d="M58.4,290.6c0.6,9.1,2.4,18.4,7.6,26c1.1,1.6,2.7,3.3,4.7,3.1c1.1-0.1,2.1-0.9,2.8-1.9c0.6-1,0.9-2.1,1.1-3.2
			c1.7-8.9-1.1-17.9-3.8-26.6c-1.1-3.6-2.6-9.8-6.2-11.8c-3.8-2-5.7,4.2-6,6.7C58.1,285.4,58.2,288,58.4,290.6z"/>
		<path class="st30" d="M58,277.6c0.2-1.5,0.6-3.3,2-3.9c1.5-0.7,3.1,0.3,4.2,1.3c7,6.2,9.6,15,10.9,24.5l-16.7,1
			C57.2,293,57.1,285.3,58,277.6z"/>
		<path class="st9" d="M33,401.3c0.7,2.5,1.7,5.2,3.9,5.9c1.5,0.5,4.7-5.7,5.9-6.9c1.1-1.2,12.2-47,10.9-50.6
			c-1.7-4.8-6.1-7.9-10.6-8.6c-6.5-1-14,1-14.9,9.3c-1.2,10.6-0.5,21.8,1,32.3C30,389,31.3,395.3,33,401.3z"/>
		<path class="st11" d="M81.2,315.1c0.5,1,0,2.3-0.9,3.1c-0.8,0.8-6.7,3.5-12.5,1c-2.9-1.3-3.3-4.1-2.3-6.7
			C66.9,308.8,80.6,313.9,81.2,315.1z"/>
		<path class="st9" d="M44.2,396.4c-0.2-5.2-5.9-11.3-12.8-4.2C20.3,403.4,17,425,12.7,441.1l7.5,2.6
			C21.3,442.5,44.3,399.3,44.2,396.4z"/>
		<path class="st31" d="M27.3,310.7c-2.7-8.7-6-19.4-4.5-28.4c3.7-4.5,11.2-14.9,26.1-14.9c10.4,0,18.3,10.5,20.1,13.2
			c2,3,1.3,7.2,0.8,10.7c-1.1,7.4-4.3,36.2-1.5,56.3H26C26.1,338,30,319.4,27.3,310.7z"/>
		<path class="st8" d="M17.6,300.2c2.1-8,6.5-15.3,12.7-20.8c1.1-1,2.6-2,4-1.4c0.7,0.3,1.2,1.1,1.5,1.8c0.2,0.8,0.2,1.6,0.2,2.4
			c-0.4,9.4-2.1,18.7-3.8,28c-0.5,2.8-1.1,5.7-2.3,8.3c-1.2,2.6-3.3,5-6,6c-1.4,0.5-3.7,0.9-5-0.2c-1.1-0.8-1.2-2.9-1.5-4.1
			c-0.9-4.2-1.2-8.6-0.9-12.9C16.5,305,17,302.5,17.6,300.2z"/>
		<path class="st13" d="M15.2,303.2c0,0.1,0,0.1,0,0.2C15.2,303.3,15.2,303.2,15.2,303.2z"/>
		<path class="st31" d="M36.1,277.6c-0.1-1.5-0.4-3.3-1.7-3.9c-1.4-0.7-4.1,0.6-5.3,1.6c-7.3,6.2-11.4,14.7-13.3,24.2l18.5,1
			C35.9,293,36.5,285.3,36.1,277.6z"/>
		<g>
			<path class="st8" d="M53,257c-1-4.5-4.4-5.5-6.4-4.5c-1.3,8.4-2.6,12.2-5.9,16.7c4.1,2.6,11.1,2.1,12.6,0
				C53.4,268.6,53.5,259.3,53,257z"/>
			<path class="st11" d="M52.8,246.4c4.1-2.8,9.9-0.4,10.8,4.8c0.8,4.8-4,12.9-6.3,14.3c-4,2.3-9.3-3.2-9.5-5.9
				C47.5,255.7,49.4,248.8,52.8,246.4z"/>
			<path class="st16" d="M49.9,247.4c-0.3-0.2-0.7-0.2-1.1,0c-0.3,0.2-0.6,0.4-0.9,0.7c-1,0.9-1.9,1.8-2.7,2.8
				c-0.8,1.1-1.3,2.3-1.3,3.6c0,0.8,0.2,1.7-0.1,2.5c-0.3,0.7-0.9,1.4-0.7,2.1c0.1,0.5,0.8,0.9,1.3,0.8c0.6-0.1,1-0.4,1.4-0.9
				c0.4-0.4,0.6-0.9,0.9-1.4c0.9-1.6,2.3-2.9,3.3-4.5c1-1.6,1.5-3.6,0.6-5.3L49.9,247.4z"/>
			<path class="st16" d="M68.8,249.5c-0.9-0.4-1.8-0.7-2.6-1.1c0.4,0.5,0.8,1,1,1.6c0.2,0.6,0,1.4-0.6,1.7c-0.4,0.3-1,0.2-1.4,0
				c-0.4-0.2-0.8-0.6-1.1-1c0.2,0.3,0.4,0.7,0.4,1.1c0,0.4-0.2,0.8-0.6,0.8c-0.3,0-0.6-0.2-0.8-0.4c-1.2-0.9-2.4-1.9-3.6-2.8
				c0.1,0.4,0.1,0.8,0.1,1.1c-0.1,0.4-0.3,0.7-0.6,0.9c-0.6,0.2-1.3-0.3-1.6-0.9c-0.4-0.6-0.8-1.2-1.4-1.3c-0.7-0.1-1.4,0.6-1.8,1.2
				c-0.1,0.1-0.2,0.2-0.2,0.3c-0.8,1.1-1.7,2.2-2.5,3.3c-0.3,0.3-0.5,0.7-0.9,0.9c-0.4,0.2-0.8,0.4-1.2,0.2c-0.7-0.3-8-11,1.4-14.3
				c1.4-0.5,3.3,0.1,4.6,0.5c1.4,0.4,2.7,1.1,4.1,1.4c1.1,0.2,2.3,0.1,3.4,0.2C65.7,243.4,68.7,246.3,68.8,249.5z"/>
			<path class="st11" d="M45.6,251.8c-0.4,1.1-0.4,2.3,0,3.3c1.3,3,4.2,0.3,4.3-1.9C50.1,250.7,46.7,249,45.6,251.8z"/>
		</g>
		<path class="st30" d="M75.4,459.6c0.1-1.1-1-2.1-2.1-2.3c-1.1-0.3-2.3-0.1-3.4-0.1c-3.3,0-6.4-2-7.9-4.9c-0.2-0.4-0.4-0.8-0.8-1.1
			c-0.5-0.3-1.2-0.1-1.7,0.3c-0.5,0.4-0.8,0.9-1.2,1.3c-0.8,0.8-1.8,1.2-2.9,1.2c-0.9,0-1.9-0.7-2.8-0.2c-0.8,0.4-1,1.4-1.2,2.2
			c-0.3,1.3-0.6,2.6-0.9,3.9c-0.1,0.3-0.1,0.6-0.2,0.9h6.2c0.3-0.4,0.5-1.6,0.6-2.1c0,0.5,0.2,1.7,0.5,2.1h17.1
			C75.2,460.4,75.4,460,75.4,459.6z"/>
		<path class="st30" d="M18.8,456.3c0.4-1.1,0.3-2.1-0.1-2.5c-0.4-0.4-0.5-2.5-0.5-5.4c0-1.4-2.3-2.6-4.3-0.9
			c-0.6,0.5-1.2,0.8-1.6,0.7c-0.4-0.1-0.6-0.9-1.1-0.6c-0.4,0.3-0.9,1.2-1.2,1.9c-0.6,1.2-1.1,2.4-1.7,3.5c-0.1,0.3-0.3,0.5-0.4,0.8
			l10.2,3.6C18.4,457,18.6,456.7,18.8,456.3z"/>
		<g>
			<path class="st32" d="M47.8,327.5h25.3c1.5,0,3.1-1.2,3.5-2.7L87.7,285c0.4-1.5-0.5-2.7-2-2.7H60.4c-1.5,0-3.1,1.2-3.5,2.7
				l-11.1,39.7C45.4,326.2,46.3,327.5,47.8,327.5z"/>
			<path class="st33" d="M45.8,324.7L57,285c0.4-1.5,2-2.7,3.5-2.7h2.7c-1.5,0-3.1,1.2-3.5,2.7l-11.1,39.7c-0.4,1.5,0.5,2.7,2,2.7
				h-2.7C46.3,327.5,45.4,326.2,45.8,324.7z"/>
		</g>
		<path class="st11" d="M49.4,315.7c1.2,0.8,1.4,2.6,0.8,4c-0.6,1.3-22.2,6.5-27.3,6.5c-1.6,0-3.4-0.2-4.3-1.4
			c-0.8-1.1-0.6-2.7-0.1-4.1c0.7-2.2,2.1-4.8,3.9-6.3C23.6,313.2,48.6,315.2,49.4,315.7z"/>
		<path class="st11" d="M57.2,311.9c0.5-0.7,1-1.7,0.5-2.4c-0.4-0.5-1-0.6-1.6-0.4s-1,0.6-1.5,0.9c-0.6,0.5-1.3,1-2.1,1.1
			c-0.8,0.1-1.7-0.3-1.9-1.1c-0.2-0.8,0.5-1.9-0.2-2.5c-0.3-0.3-0.9-0.3-1.3-0.1c-0.4,0.2-0.7,0.6-1,1c-1.4,1.9-2.9,4-3.5,6.3
			c-0.6,2.4,0,5.2,1.9,6.6c1.8,1.3,4.4,1.1,6.1-0.3c1.4-1.2,2-2.8,2.2-4.6C55.1,314.5,56,313.5,57.2,311.9z"/>
		<path class="st11" d="M82.5,309.9c-0.1-0.3-0.2-4.6-0.5-4.8c-0.4-0.3-1.9,4.8-1.6,5.2c-1.1-0.1-1.4-0.2-2.5-0.3
			c-0.8-0.1-1.9,0-2.1,0.7c-0.2,0.6,0.3,1.2,0.6,1.8c0.6,1-0.3,6.6,0.2,7.1c1.8,1.8,5.6-1.3,6.2-3C83.8,314.2,83.3,312.2,82.5,309.9
			z"/>
	</g>
	<g>
		<g>
			<path class="st3" d="M147.6,265.2h-35.1c-1.8,0-3.3,1.5-3.3,3.3v15.7c0,1.8,1.5,3.3,3.3,3.3h20.6l8.5,8.5v-8.5h5.9
				c1.8,0,3.3-1.5,3.3-3.3v-15.7C150.9,266.7,149.4,265.2,147.6,265.2z"/>
			<path class="st21" d="M120.3,272.5h19.5c0.5,0,1-0.4,1-1c0-0.5-0.4-1-1-1h-19.5c-0.5,0-1,0.4-1,1
				C119.3,272.1,119.7,272.5,120.3,272.5z M139.8,273.8h-19.5c-0.5,0-1,0.4-1,1c0,0.5,0.4,1,1,1h19.5c0.5,0,1-0.4,1-1
				C140.7,274.3,140.3,273.8,139.8,273.8z M139.8,277.1h-19.5c-0.5,0-1,0.4-1,1v0c0,0.5,0.4,1,1,1h19.5c0.5,0,1-0.4,1-1v0
				C140.7,277.5,140.3,277.1,139.8,277.1z M139.8,280.3h-10.5c-0.5,0-1,0.4-1,1c0,0.5,0.4,1,1,1h10.5c0.5,0,1-0.4,1-1
				C140.7,280.8,140.3,280.3,139.8,280.3z"/>
		</g>
	</g>
</g>
<g>
	<g>
		<g>
			<g>
				<polygon class="st34" points="551.4,370.9 566.5,370.9 574,353.8 558.9,353.8 				"/>
				<polygon class="st33" points="553.1,370.9 568.2,370.9 575.7,353.8 560.6,353.8 				"/>
				<path class="st35" d="M550.2,368.6h29c0.6,0,1.1,0.5,1.1,1.1l0,0c0,0.6-0.5,1.1-1.1,1.1h-29c-0.6,0-1.1-0.5-1.1-1.1l0,0
					C549,369.1,549.5,368.6,550.2,368.6z"/>
				<path class="st34" d="M594.6,359.6c2.8,0,4.7-2.3,4.3-5l-6.6-46.3c-0.4-2.8-3-5-5.8-5h-59.6c-2.8,0-4.7,2.3-4.3,5l6.6,46.3
					c0.4,2.8,3,5,5.8,5H594.6z"/>
				<path class="st35" d="M597.4,359.6c2.8,0,4.7-2.3,4.3-5l-6.6-46.3c-0.4-2.8-3-5-5.8-5h-59.6c-2.8,0-4.7,2.3-4.3,5l6.6,46.3
					c0.4,2.8,3,5,5.8,5H597.4z"/>
				<path class="st36" d="M596.9,355.9c1.6,0,2.7-1.3,2.5-2.9l-6.1-43.1c-0.2-1.6-1.7-2.9-3.3-2.9h-59.6c-1.6,0-2.7,1.3-2.5,2.9
					l6.1,43.1c0.2,1.6,1.7,2.9,3.3,2.9H596.9z"/>
				<g>
					<path class="st32" d="M531.7,317.2h59.8c0.6,0,1-0.5,0.9-1.1l-0.4-2.7c-0.1-0.6-0.6-1.1-1.2-1.1H531c-0.6,0-1,0.5-0.9,1.1
						l0.4,2.7C530.5,316.7,531.1,317.2,531.7,317.2z"/>
					<path class="st32" d="M587.7,346.2h7.9c0.6,0,1.1-0.5,1-1.2l-3.6-24.7c-0.1-0.6-0.7-1.2-1.3-1.2h-7.9c-0.6,0-1.1,0.5-1,1.2
						l3.6,24.7C586.4,345.7,587,346.2,587.7,346.2z"/>
					<path class="st32" d="M535,338.4h21c0.6,0,1.1-0.5,1-1.2l-2.4-16.9c-0.1-0.6-0.7-1.2-1.3-1.2h-21c-0.6,0-1.1,0.5-1,1.2
						l2.4,16.9C533.7,337.9,534.3,338.4,535,338.4z"/>
					<path class="st32" d="M534.2,341.3c-0.1-0.7,0.3-1.2,0.9-1.2h21.2c0.6,0,1.2,0.6,1.3,1.2l1.3,9.3h-23.3L534.2,341.3z"/>
					<path class="st32" d="M559,332.6c-0.1-0.7,0.3-1.2,0.9-1.2h8.1c0.6,0,1.2,0.6,1.3,1.2l2.6,17.9h-10.2L559,332.6z"/>
					<path class="st32" d="M586.9,349.2c-0.1-0.7,0.3-1.2,0.9-1.2h8.1c0.6,0,1.2,0.6,1.3,1.2l0.2,1.3h-10.2L586.9,349.2z"/>
					<path class="st32" d="M573.7,336.8h7.9c0.6,0,1.1-0.5,1-1.2l-2.2-15.3c-0.1-0.6-0.7-1.2-1.3-1.2h-7.9c-0.6,0-1.1,0.5-1,1.2
						l2.2,15.3C572.5,336.3,573.1,336.8,573.7,336.8z"/>
					<path class="st32" d="M567.3,319.2l1.3,9.3c0.1,0.7-0.3,1.2-0.9,1.2h-8.1c-0.6,0-1.2-0.6-1.3-1.2l-1.3-9.3H567.3z"/>
					<path class="st32" d="M572.6,339.6c-0.1-0.7,0.3-1.2,0.9-1.2h8.1c0.6,0,1.2,0.6,1.3,1.2l1.6,10.9h-10.2L572.6,339.6z"/>
					<polygon class="st37" points="587.7,326.3 592.5,326.3 591.7,320.8 586.9,320.8 					"/>
					<path class="st36" d="M585,327.8l0.1,0.9h7.7l-0.1-0.9H585z M592.9,329.6h-7.7l0.1,0.9h7.7L592.9,329.6z M593.2,331.3h-7.7
						l0.1,0.9h7.7L593.2,331.3z M593.4,333.1h-7.7l0.1,0.9h7.7L593.4,333.1z M593.7,334.8H590l0.1,0.9h3.7L593.7,334.8z"/>
					<polygon class="st22" points="575.1,326.3 579.9,326.3 579.1,320.8 574.4,320.8 					"/>
					<path class="st36" d="M572.5,327.8l0.1,0.9h7.7l-0.1-0.9H572.5z M580.4,329.6h-7.7l0.1,0.9h7.7L580.4,329.6z M580.6,331.3H573
						l0.1,0.9h7.7L580.6,331.3z M580.9,333.1h-7.7l0.1,0.9h7.7L580.9,333.1z M581.1,334.8h-3.7l0.1,0.9h3.7L581.1,334.8z"/>
					<polygon class="st38" points="564,338.4 568.7,338.4 567.9,332.9 563.2,332.9 					"/>
					<path class="st36" d="M561.3,340l0.1,0.9h7.7l-0.1-0.9H561.3z M569.2,341.7h-7.7l0.1,0.9h7.7L569.2,341.7z M569.4,343.5h-7.7
						l0.1,0.9h7.7L569.4,343.5z M569.7,345.2H562l0.1,0.9h7.7L569.7,345.2z M569.9,347h-3.7l0.1,0.9h3.7L569.9,347z"/>
					<path class="st36" d="M558.4,320.1l0.1,0.9h7.7l-0.1-0.9H558.4z M566.3,321.8h-7.7l0.1,0.9h7.7L566.3,321.8z M566.6,323.6H563
						l0.1,0.9h3.6L566.6,323.6z"/>
					<polygon class="st38" points="533.8,326.3 553.9,326.3 553.2,320.8 533,320.8 					"/>
					<path class="st36" d="M534,327.8l0.1,0.9h20.1l-0.1-0.9H534z M554.4,329.6h-11.9l0.1,0.9h11.9L554.4,329.6z"/>
					<polygon class="st39" points="577.9,345.5 582.7,345.5 581.9,340 577.1,340 					"/>
					<path class="st36" d="M575.2,347.1l0.1,0.9h7.7l-0.1-0.9H575.2z M583.1,348.8h-4.9l0.1,0.9h4.9L583.1,348.8z"/>
					<polygon class="st30" points="590.1,342.9 594.9,342.9 594.1,337.4 589.3,337.4 					"/>
					<path class="st36" d="M587.4,344.5l0.1,0.9h7.7l-0.1-0.9H587.4z"/>
				</g>
			</g>
			<g>
				<g>
					<path class="st8" d="M613.1,332.8c-1.6,6.8-4.1,13.4-7.2,19.7c-0.9,1.7-2.1,3.6-4,3.7c-2.2,0.1-4-2.1-4.4-4.3
						c-1-5.9,0.5-15.4,2.1-23.4L613.1,332.8z"/>
					<path class="st40" d="M599,325.5c1-4.9,2.7-17.6,9.3-18.1c7.8-0.7,7.9,10.7,7.3,15.7c-0.4,3.5-1,7-1.9,10.4l-15.4-5
						C598.5,327.5,598.8,326.5,599,325.5z"/>
					<path class="st11" d="M579.2,326c-1.2-0.7-2.7-1.4-3.9-0.8c-1.8,1-1.1,3.7-0.1,5.4c5.3,9.2,12.6,17.3,21.2,23.6
						c4.8,3.5,7,2.7,9.6-2.6C608.9,345.8,586.6,330.4,579.2,326z"/>
					<path class="st11" d="M576.7,321.1c-3.1-2.4-7.3-2.4-11.2-2.3c-0.2,0.5,0.2,1,0.7,1.3c0.5,0.2,1,0.3,1.5,0.5
						c1.3,0.6,1.7,2.2,1.6,3.6c0,1.4-0.2,2.9,0.5,4.1c0.7,1.2,2.2,1.8,3.7,1.9c1.7,0.1,6.1-0.7,6.5-2.9
						C580.4,325.4,578.1,322.2,576.7,321.1z"/>
					<g>
						<path class="st8" d="M574.9,328.9c-0.9,0-1.8-0.2-2.7-0.5c-0.7-0.3-1.1-0.8-1-1.4c0.1-0.8,1.1-1,1.6-1c1.6-0.3,3-1.4,3.6-3
							c0.1-0.2,0.3-0.3,0.5-0.2c0.2,0.1,0.3,0.3,0.2,0.5c-0.7,1.8-2.3,3.1-4.2,3.5c-0.3,0.1-0.9,0.2-0.9,0.4c0,0.2,0.3,0.4,0.6,0.5
							c1.8,0.7,3.9,0.6,5.5-0.4c0.2-0.1,0.4,0,0.5,0.1c0.1,0.2,0,0.4-0.1,0.5C577.4,328.6,576.2,328.9,574.9,328.9z"/>
					</g>
				</g>
				<g>
					<path class="st41" d="M623,348.4c1.7-4.1,19.6,0.8,22.7,7.7c2,1.4,3.6,3.5,4.4,5.7c1.3,3.6,0.8,7.2,0.3,10.7
						c-1.9,12.3-4.3,24.4-7.3,36.2c-0.2,0.9-0.5,1.8-1,2.4c-1.5,1.6-4,0.9-6.2-0.5c-0.1,0.1-0.3,0.1-0.5,0.2c-1.4,0.4-6-2.4-7-3.5
						C627.3,406.1,621.6,351.7,623,348.4z"/>
					<path class="st8" d="M643.6,455.8c-2.1,0.3-4.4,0.1-6.6-0.5c-0.3-2.6-0.6-5.1-0.9-7.7c0-0.3-0.1-0.7,0.1-0.9
						c0.2-0.4,0.7-0.6,1.1-0.6c1.7-0.3,4.4-0.4,4.8,1.8C642.7,450.5,643.2,453.2,643.6,455.8z"/>
					<path class="st41" d="M627.3,399c1.5-4.5,7.4-7.6,12.6,0.2c8,12,0.8,34.4,3.1,48.8h-7.4C634.9,446.6,626.5,401.5,627.3,399z"/>
					<path class="st41" d="M661.5,361.6c-1.8,1.4-4.2,1.6-6.4,1.6c-18.5,0-29.2-6-26.6-14.5c2.6-8.7,19.2-7.3,27.8-4.5
						c1.9,0.6,4.6,1.2,5.8,2.9C663.9,349.8,665.9,358.2,661.5,361.6z"/>
					<path class="st41" d="M665,355.5c-2.6-12.3-24.7-9.3-27.3,3c-1.3,6.3,0.4,12.8,2.5,18.9c1.7,5,3.8,9.8,6.1,14.6
						c2.1,4.2,4.6,9.8,7.2,13.8c0.3,0.4,11.2-0.1,11.6-2.5c1-5.8,1.6-11.7,1.9-17.6C667.4,375.7,667,365.2,665,355.5z"/>
					<path class="st41" d="M622.4,459.6c-0.1-1.1,0.9-1.9,2-2.2c1-0.2,2.1-0.1,3.2-0.1c3,0,6-1.9,7.4-4.6c0.2-0.4,0.4-0.8,0.7-1
						c0.5-0.3,1.1-0.1,1.5,0.3c0.4,0.4,0.7,0.8,1.1,1.2c0.7,0.7,1.7,1.1,2.7,1.1c0.8,0,1.8-0.6,2.6-0.2c0.7,0.4,0.9,1.4,1.1,2
						c0.3,1.2,0.6,2.4,0.9,3.6c0.1,0.3,0.1,0.5,0.1,0.8H640c-0.3-0.4-0.5-1.5-0.6-1.9c0,0.5-0.2,1.6-0.5,1.9h-16
						C622.7,460.3,622.5,460,622.4,459.6z"/>
					<g>
						<path class="st8" d="M687,452.7c-1.9,1.1-4,1.8-6.2,2c-0.8-2.4-1.7-4.8-2.5-7.3c-0.1-0.3-0.2-0.6-0.2-0.9
							c0.1-0.5,0.5-0.8,0.9-1.1c1.5-1,4-2.1,4.9,0C685,447.8,686,450.3,687,452.7z"/>
						<path class="st41" d="M653.3,405.1c-0.1-4.8,5-10.8,11.7-4.5c10.9,10,14.9,30,19.7,44.7l-6.9,2.8
							C676.8,447,653.4,407.8,653.3,405.1z"/>
						<path class="st41" d="M679.8,459.7c-0.4-1-0.4-1.9,0-2.4c0.3-0.4,0.3-2.3,0.2-5.1c-0.1-1.3,2.1-2.5,3.9-1
							c0.6,0.5,1.1,0.7,1.5,0.6c0.3-0.2,0.5-0.9,1-0.6c0.4,0.2,0.9,1.1,1.2,1.7c0.6,1.1,1.2,2.1,1.7,3.2c0.1,0.2,0.3,0.5,0.4,0.7
							l-9.3,3.8C680.1,460.4,679.9,460.1,679.8,459.7z"/>
					</g>
				</g>
				<path class="st42" d="M622.4,358.3c0.3-15.6-6.1-26.5-14-34.4c-3.1-3.1-6.8-6.7-6-11c0.7-3.6,4.4-5.8,7.8-7.3
					c5.9-2.6,11.9-4.7,18.1-6.3c3.7-1,13.2-6.2,17.1-5.2c10.4,2.7,8.8,21.8,11.7,30.5c2.3,7,7.8,28.8,7.7,29.3l-41.1,12.9
					C621.4,365.3,622.4,361.9,622.4,358.3z"/>
				<g>
					<path class="st8" d="M614.9,294.2c1.7-4.7,6.3-6.7,8.8-6.3c0.9,7.8,1.1,8.3,4.9,11.8c1.2,4.2-10.2,8.2-12,6.6
						C616.6,305.7,614,296.7,614.9,294.2z"/>
					<path class="st16" d="M609,284c-0.6,0.8-1.3,1.7-1.2,2.7c0,0.8,0.5,1.5,0.9,2.1c0.6,0.8,1.1,1.7,1.7,2.5
						c0.5-1.2,0.6-2.5,0.7-3.7s0.4-2.6,1.2-3.5c0.5-0.6,1.3-1.1,1.3-1.9c0-1.1-1.3-1.4-2-0.7C610.7,282.2,609.9,283,609,284z"/>
					<path class="st11" d="M621.4,282.9c-3-3.5-8.9-2.8-10.9,1.7c-1.9,4.1,0.4,12.6,2.1,14.4c3,3.1,9.2-0.6,10-3
						C623.9,292.5,623.9,285.9,621.4,282.9z"/>
					<path class="st16" d="M619.9,284.1c-0.2,0.7,1.5,9.3,1.8,9.2c0.8-0.4,1.9-2.8,3.5-2.8c0.5,0,1.2,0.3,1.2-0.7
						c0-6.5,0.3-6.2-0.9-6.8C622.9,281.8,620.2,282.9,619.9,284.1z"/>
					<path class="st11" d="M626.6,289.5c0.1,1.1-0.2,2.1-0.8,3c-1.9,2.4-3.8-0.8-3.4-2.7C622.8,287.4,626.3,286.7,626.6,289.5z"/>
					<path class="st16" d="M612,285.1c0.2,0.6,0.5,1.2,1.1,1.3c0.6,0.1,6.2-4.6,6.5-4.6c0.4,0-0.1,2.4,0.3,2.6
						c0.3,0.2,0.8,0.1,1.2-0.1c1.6-0.7,3.5-0.6,5.2-0.5c0.1-0.5,0-1.4-0.3-1.9c-0.3-0.5-0.7-0.8-1.1-1.2c-1.8-1.5-4-2.7-6.4-2.6
						c-1.4,0-2.8,0.4-4.1,1C609.6,281.2,611.7,284.3,612,285.1z"/>
				</g>
				<path class="st11" d="M639.4,320.6l14.3,1.3c0,6.3-0.5,12.7-1.4,18.9l-12-1.2C640.2,333.3,639.9,327.1,639.4,320.6z"/>
				<path class="st42" d="M638.2,311.2c-0.6-5.4-4.8-13.5,1.2-16.1c5.6-2.4,10.8,1.3,11.9,6.6c1.6,7.4,2.3,15.1,2.3,22.8l-15.6-0.6
					C637.8,320,638.7,315.3,638.2,311.2z"/>
				<path class="st11" d="M640.3,336.9l12,3.9c-0.6,1.3-12.4,21-18.3,28c-1,1.2-2.6,2.4-3.9,1.6c-1-0.7-1.1-2.3-0.6-3.5
					C634,356.7,637.5,346.6,640.3,336.9z"/>
				<path class="st16" d="M626.2,284.3c0.6,0.1,1.1,0.4,1.3,1c0.1-1.4-0.5-2.8-1.6-3.6c0.7,0.1,1.2-0.8,1.1-1.4
					c-0.2-0.7-0.7-1.2-1.3-1.6c-1.9-1.3-4.3-1.8-6.6-1.5c0-0.3-0.1-0.6-0.1-0.9c-1.4,0.3-2.7,1-3.7,2.1c0-0.3-0.1-0.5-0.1-0.8
					c-1,0.6-2,1.2-3,1.8c0.2-0.2,0.1-0.5-0.2-0.5c-2.1,1.7-3.6,4.3-3.8,7c1.2-1.4,2.7-2.5,4.5-3.2c2.6-1.1,5.5-1.2,7.9-2.5
					c-0.3,1.4,1,2.9,2.4,2.6c-0.2-0.2-0.5-0.5-0.7-0.7L626.2,284.3z"/>
				<path class="st11" d="M626.8,364.1c-1,0.2-1.8,1-2.6,1.8c-1.1,1.1-2.1,2.2-3.2,3.3c-0.4,0.4-0.9,1.1-0.6,1.6
					c0.2,0.5,1,0.6,1.5,0.3s0.8-0.8,1.1-1.2c0.1,0.9,1,1.6,1.9,1.6c0.4-0.5,0.8-0.9,1.3-1.4c0.8,1,2.3,1,3.6,0.8
					c2.1-0.2,4.6-0.9,3.1-3.2C631.7,366,629.1,363.6,626.8,364.1z"/>
			</g>
			<g>
				<path class="st43" d="M689.8,346L689.8,346c-0.2,0-0.3,0-0.5,0c-1.6,0-3,1.2-3.1,2.8l-5.3,55.9c-0.1,1.1-1.1,2-2.2,2h-33.7
					c-1.7,0-3.1,1.4-3.1,3.1c0,1.7,1.4,3.1,3.1,3.1h33.7c2.6,0,4.9-1.2,6.5-3c1.9,0.1,9,0.8,9,0.8l7.4-2.3l6.7-62.5H689.8z"/>
				<path class="st44" d="M697.5,406.7c1.2,0,2.1-0.9,2.2-2l5.3-55.9c0.2-1.6,1.5-2.8,3.1-2.8l0,0c1.9,0,3.3,1.6,3.1,3.4l-5.3,55.9
					c-0.4,4.4-4.1,7.7-8.5,7.7h-33.7c-1.7,0-3.1-1.4-3.1-3.1l0,0c0-1.7,1.4-3.1,3.1-3.1H697.5z"/>
				
					<rect x="673.3" y="413" transform="matrix(-1 -1.224647e-16 1.224647e-16 -1 1351.6675 873.4971)" class="st45" width="5.1" height="47.5"/>
				<path class="st46" d="M694.1,460.5L694.1,460.5c0-2.8-2.3-5.1-5.1-5.1h-26.2c-2.8,0-5.1,2.3-5.1,5.1l0,0H694.1z"/>
				<path class="st46" d="M673.5,417.9h4.7c1.6,0,3.1-0.8,3.9-2.1l1.8-2.7h-16.1l1.8,2.7C670.4,417.1,671.9,417.9,673.5,417.9z"/>
			</g>
			<g>
				<path class="st8" d="M631.3,366.7c2.5-1.2,16.6-3.1,19.1-4.2c3.5-1.5,6.1-5.6,7.8-8.9c0.9-1.9,1.7-3.8,2.4-5.7l10.6,5.6
					c-1.4,2.5-3,4.8-4.8,7c-2.7,3.4-5.8,6.6-9.7,8.7c-4,2.1-20.6,2.4-25.1,1.7C628.1,370.1,628.8,367.9,631.3,366.7z"/>
				<path class="st47" d="M668.1,336.4c2.8-1.5,8.5-1.2,8.8,2.8c0.2,2.4-1.2,5-2.1,7.1c-1,2.4-2.2,4.7-3.5,6.9
					c0,0.1-0.1,0.2-0.1,0.2l-11.7-4.9C662.1,345.3,664.5,338.3,668.1,336.4z"/>
				<path class="st8" d="M621.1,365.8c-0.9,0.9-1.6,2.1-1.7,3.3c0,1.3,1,3.8,2,3c0.8-0.7,1-1.9,2-1.9c1.1,0,2,0.6,3,1
					c2.9,1.1,11.7-0.4,7.9-5C631.5,362.8,624.2,362.9,621.1,365.8z"/>
				<path class="st8" d="M601.7,452.5c-0.6,0.9-1.4,1.9-2.5,1.9c-1.9,0-2-2.7-1.5-4.5c0.5-1.9,1-3.8,1.5-5.8l5.8,1.7
					C604.4,448.2,602.9,450.8,601.7,452.5z"/>
				<path class="st9" d="M616.5,396.8c4.7-5.2,34.1-11.6,47.9-15.8c10.3-3.2,20.9-4.9,22.5,9c0.7,6-2.4,12.2-7.5,15.3
					c-5.6,3.4-12.7,3.1-19.2,2.7c-12.5-0.8-20.2-1.3-32.7-2.2c-1.2,16.4-15.1,22.2-21.3,40.3l-9.4-1.9
					C602.3,435.7,614.1,399.8,616.5,396.8z"/>
				<path class="st11" d="M665.9,444c0.5,1,0.9,2.2,0.4,3.1c-1,1.6-3.3,0.4-4.6-0.9c-1.4-1.4-2.8-2.8-4.3-4.2l5.7-3.4
					C664.1,440.4,665,442.2,665.9,444z"/>
				<path class="st9" d="M689.2,405.2c-5.6,3.4-12.7,3.1-19.2,2.7c-13-0.9-25.9-1.7-38.9-2.6c-2.1-0.1-4.4-0.4-5.7-2
					c-1.5-1.9-0.8-4.9,0.9-6.6c1.7-1.7,4.1-2.5,6.4-3.2c13.8-4.2,27.6-8.4,41.4-12.7c10.3-3.2,20.9-4.9,22.5,9
					C697.4,395.9,694.3,402.1,689.2,405.2z"/>
				<path class="st9" d="M624.6,400.3c2.9-8.8,20.7,8.6,23.8,13.3c5.3,8,10.3,16.4,14.7,25l-7,5.7c-4.6-9.2-13.7-16.9-21.1-24.2
					c-2.4-2.4-4.9-4.9-6.4-8C627.2,408.9,624.1,401.9,624.6,400.3z"/>
				<path class="st15" d="M688.9,346.8c-0.7,5.3-2.7,10.4-2.6,15.7c0.1,5.3,2.4,10.6,6.3,14.2c2.4,2.2,5.7,4.8,4.8,8
					c-0.8,2.8-4.3,3.7-7.3,4c-6.4,0.7-13.7,1.2-18.4-3.2c-2.9-2.7-4.1-6.7-5-10.5c-1.6-6.8-2.6-13.7-2.8-20.7
					c-0.2-5.9,0.2-12.3,3.6-17.1c3.4-4.8,7.2-8.1,12.8-6.4C686.5,337,689.6,341.6,688.9,346.8z"/>
				<path class="st29" d="M604.4,448.4c-0.4,0.6-2,0.9-2.7,1c-0.5,0-3-1.1-3.6-0.9c-0.4,0.1-1.8,5.3-3.6,6.4
					c-1.8,1.1-3.8,1.7-5.7,2.5c-0.7,0.3-1.3,0.6-1.9,1.1s-0.9,1.2-0.8,1.9c0,0.1,0,0.1,0.1,0.2h11.8c0.3-0.4,0.7-0.8,1-1.3
					c1.1-1.5,2.2-3.1,3.2-4.6c0.3,1.7,0.6,3.7,1,5.9h1.3C604.7,458.8,605.9,450.3,604.4,448.4z"/>
				<path class="st29" d="M670.4,449.9c-0.4-1.3-0.8-2.6-1.6-3.6c-0.8-1.1-1.7-2.1-2.9-2.5c0,0.7-0.3,1.7-0.9,2
					c-0.5,0.2-3.4,0.1-3.8,0.5c-0.3,0.2,0.9,4.7,0.2,6.6c0,0-2.7,2-4,3c-0.6,0.4-1.1,0.8-1.5,1.4c-0.4,0.6-0.5,1.4-0.1,1.9
					c0,0.1,0.1,0.1,0.1,0.1l10.1-1.9l1.4-0.5c0.1-0.5,0.2-1,0.2-1.4c0.2-1.7,0.4-3.5,0.6-5.2c1.1,1.6,2,3.4,2.7,5.3l1.2-0.5
					C671.5,453.3,670.9,451.6,670.4,449.9z"/>
				<path class="st11" d="M638,366.1c2.5-1.2,16.6-2.5,19.1-3.6c3.5-1.5,6.1-5.6,7.8-8.9c0.9-1.9,1.7-3.8,2.4-5.7l10.6,5.6
					c-1.4,2.5-3,4.8-4.8,7c-2.7,3.4-5.8,6.6-9.7,8.7c-4,2.1-20.6,1.8-25.1,1.1C634.8,369.5,635.6,367.2,638,366.1z"/>
				<path class="st15" d="M669.3,343.2c1.2-2.7,2.9-5.4,5.6-6.8c2.8-1.5,8.5-1.2,8.8,2.8c0.2,2.4-1.2,5-2.1,7.1
					c-1,2.4-2.2,4.7-3.5,6.9c0,0.1-0.1,0.2-0.1,0.2l-11.7-4.9C666.9,347,668.6,344.7,669.3,343.2z"/>
				<path class="st11" d="M627.9,361.2c-1.2,0.5-2.2,1.4-2.7,2.6c-0.5,1.2-0.3,3.9,0.8,3.5c1-0.4,1.6-1.4,2.5-1.1
					c1,0.4,1.7,1.3,2.5,2c2.3,2.1,11.1,3.6,9.2-2C638.7,361.9,631.8,359.4,627.9,361.2z"/>
				<g>
					<path class="st8" d="M679.1,318.6c-0.5-0.9-5.9,1.9-6.2,2.5c-0.3,0.7-0.7,8.2-1.8,12.9c-0.2,1,9.8-2.1,9.1-3.3
						C679,328.8,677.8,321.2,679.1,318.6z"/>
					<path class="st11" d="M663.5,311.8c1.9-7.7,12.5-6.1,15-5.3c2.5,0.8,2.6,4.3,2.8,6.9c0.1,1.6-0.4,3.2-1.4,4.5
						c-0.9,1.2-5,3.1-5.2,3.1c-1.5,2.6-3.9,5.5-6.4,5.5c-1.1,0-2.1-0.7-2.8-1.6c-0.7-0.9-1-2-1.4-3
						C663.1,318.6,662.7,315.2,663.5,311.8z"/>
					<path class="st16" d="M681.9,316.3c0.9-1.1,1.6-2.4,1.8-3.9c0.2-1.7-0.3-3.4-1.3-4.9c-1.7-2.5-6.1-5.8-9.7-5.9
						c-3.8-0.1-10.3,3.7-9.7,8.4c0.2,1.4,1,1.4,2.3,1.9c1.8,0.6,4.2,1,5.6,2.2c1.8,1.4,1,4.7,4.6,5.8c1.2,0.3,2.4,2.4,3.1,4
						C679.6,322.9,681,317.4,681.9,316.3z"/>
					<path class="st16" d="M687.2,326c0.3,1.5-0.2,3-0.1,4.4c0.2,3.5,3.4,6,4.5,9.2c0.4,1.3,0.5,2.7-0.1,3.9
						c-0.6,1.2-1.9,2.1-3.3,1.8c-1.4-0.3-2.4-1.7-2.9-3c-0.5-1.4-0.9-2.9-1.9-3.9c-1.6-1.6-4.3-1.8-5.8-3.5
						c-1.5-1.6-2.5-6.2-2.5-9.5c0-6.5,2.1-12.4,5.2-11.4c1.9,0.6,2.4,3.9,2.9,5.4C684,321.9,686.6,323.5,687.2,326z"/>
					<path class="st11" d="M677.1,316.9c0.2,0.2,0.3,0.4,0.3,0.7c0.2,0.8,0,1.6-0.4,2.3c-0.4,0.7-1.2,1.2-1.9,1.3
						c-0.3,0.1-0.7,0.1-0.9-0.1c-0.9-0.6-0.5-2.6,0-3.4C674.6,317,676.3,316.2,677.1,316.9z"/>
				</g>
			</g>
			<path class="st23" d="M619.1,366.3l20.7,1.6c0.8,0.1,1.3,0.7,1.3,1.5l0,0c0,0.8-0.7,1.5-1.5,1.5H619c-0.8,0-1.5-0.7-1.5-1.5v-1.6
				C617.6,366.9,618.3,366.2,619.1,366.3z"/>
			<g>
				<g>
					
						<rect x="618.9" y="375.6" transform="matrix(0.9957 -9.220207e-02 9.220207e-02 0.9957 -35.9166 58.9525)" class="st33" width="2.4" height="85.3"/>
				</g>
				<g>
					
						<rect x="477" y="417" transform="matrix(9.199546e-02 -0.9958 0.9958 9.199546e-02 55.4401 897.1757)" class="st33" width="85.3" height="2.4"/>
				</g>
				<path class="st48" d="M502.6,375.7h134.6c1.3,0,2.4-1.1,2.4-2.4l0,0c0-1.3-1.1-2.4-2.4-2.4H502.6c-1.3,0-2.4,1.1-2.4,2.4l0,0
					C500.1,374.6,501.2,375.7,502.6,375.7z"/>
			</g>
		</g>
	</g>
	<g>
		<g>
			<path class="st27" d="M593,234h-43.2c-2.3,0-4.1,1.8-4.1,4.1v19.4c0,2.3,1.8,4.1,4.1,4.1h25.4l10.5,10.5v-10.5h7.3
				c2.3,0,4.1-1.8,4.1-4.1v-19.4C597.1,235.8,595.2,234,593,234z"/>
			<path class="st36" d="M559.4,243h24c0.7,0,1.2-0.5,1.2-1.2c0-0.7-0.5-1.2-1.2-1.2h-24c-0.7,0-1.2,0.5-1.2,1.2
				C558.2,242.5,558.7,243,559.4,243z M583.4,244.6h-24c-0.7,0-1.2,0.5-1.2,1.2c0,0.7,0.5,1.2,1.2,1.2h24c0.7,0,1.2-0.5,1.2-1.2
				C584.6,245.1,584,244.6,583.4,244.6z M583.4,248.6h-24c-0.7,0-1.2,0.5-1.2,1.2l0,0c0,0.7,0.5,1.2,1.2,1.2h24
				c0.7,0,1.2-0.5,1.2-1.2l0,0C584.6,249.1,584,248.6,583.4,248.6z M572.3,252.6h-13c-0.7,0-1.2,0.5-1.2,1.2c0,0.7,0.5,1.2,1.2,1.2
				h13c0.7,0,1.2-0.5,1.2-1.2C573.5,253.1,573,252.6,572.3,252.6z"/>
		</g>
		<g>
			<path class="st21" d="M441,265.7h31.3c1.6,0,3,1.3,3,3v14c0,1.6-1.3,3-3,3h-18.4l-7.6,7.6v-7.6H441c-1.6,0-3-1.3-3-3v-14
				C438.1,267.1,439.4,265.7,441,265.7z"/>
			<path class="st3" d="M466.2,271.4c0-0.5-0.4-0.9-0.9-0.9H448c-0.5,0-0.9,0.4-0.9,0.9c0,0.5,0.4,0.9,0.9,0.9h17.4
				C465.8,272.2,466.2,271.8,466.2,271.4z M447.1,274.3c0,0.5,0.4,0.9,0.9,0.9h17.4c0.5,0,0.9-0.4,0.9-0.9c0-0.5-0.4-0.9-0.9-0.9
				H448C447.5,273.4,447.1,273.8,447.1,274.3z M447.1,277.2L447.1,277.2c0,0.5,0.4,0.9,0.9,0.9h17.4c0.5,0,0.9-0.4,0.9-0.9l0,0
				c0-0.5-0.4-0.9-0.9-0.9H448C447.5,276.3,447.1,276.7,447.1,277.2z M455.1,280c0,0.5,0.4,0.9,0.9,0.9h9.4c0.5,0,0.9-0.4,0.9-0.9
				c0-0.5-0.4-0.9-0.9-0.9H456C455.5,279.2,455.1,279.6,455.1,280z"/>
		</g>
		<g>
			<path class="st3" d="M682,261.6h-28.5c-1.5,0-2.7,1.2-2.7,2.7v12.8c0,1.5,1.2,2.7,2.7,2.7h16.7l6.9,6.9v-6.9h4.8
				c1.5,0,2.7-1.2,2.7-2.7v-12.8C684.7,262.8,683.5,261.6,682,261.6z"/>
			<path class="st36" d="M659.9,267.5h15.8c0.4,0,0.8-0.3,0.8-0.8c0-0.4-0.3-0.8-0.8-0.8h-15.8c-0.4,0-0.8,0.3-0.8,0.8
				C659.1,267.2,659.5,267.5,659.9,267.5z M675.7,268.6h-15.8c-0.4,0-0.8,0.3-0.8,0.8s0.3,0.8,0.8,0.8h15.8c0.4,0,0.8-0.3,0.8-0.8
				S676.1,268.6,675.7,268.6z M675.7,271.2h-15.8c-0.4,0-0.8,0.3-0.8,0.8l0,0c0,0.4,0.3,0.8,0.8,0.8h15.8c0.4,0,0.8-0.3,0.8-0.8l0,0
				C676.5,271.6,676.1,271.2,675.7,271.2z M668.4,273.9h-8.6c-0.4,0-0.8,0.3-0.8,0.8c0,0.4,0.3,0.8,0.8,0.8h8.6
				c0.4,0,0.8-0.3,0.8-0.8C669.2,274.2,668.9,273.9,668.4,273.9z"/>
		</g>
	</g>
</g>
<g>
	<g>
		<polygon class="st34" points="258.9,371 243.9,371 236.4,354.1 251.4,354.1 		"/>
		<polygon class="st33" points="257.2,371 242.2,371 234.7,354.1 249.7,354.1 		"/>
		<path class="st35" d="M260.1,368.8h-28.7c-0.6,0-1.1,0.5-1.1,1.1l0,0c0,0.6,0.5,1.1,1.1,1.1h28.7c0.6,0,1.1-0.5,1.1-1.1l0,0
			C261.2,369.3,260.7,368.8,260.1,368.8z"/>
		<path class="st34" d="M216,359.8c-2.8,0-4.7-2.2-4.3-5l6.5-45.9c0.4-2.8,3-5,5.7-5H283c2.8,0,4.7,2.2,4.3,5l-6.5,45.9
			c-0.4,2.8-3,5-5.7,5H216z"/>
		<path class="st35" d="M213.2,359.8c-2.8,0-4.7-2.2-4.3-5l6.5-45.9c0.4-2.8,3-5,5.7-5h59.1c2.8,0,4.7,2.2,4.3,5l-6.5,45.9
			c-0.4,2.8-3,5-5.7,5H213.2z"/>
		<path class="st36" d="M213.7,356.1c-1.6,0-2.7-1.3-2.5-2.9l6.1-42.7c0.2-1.6,1.7-2.9,3.3-2.9h59.1c1.6,0,2.7,1.3,2.5,2.9
			l-6.1,42.7c-0.2,1.6-1.7,2.9-3.3,2.9H213.7z"/>
		<g>
			<path class="st32" d="M278.4,317.8h-59.3c-0.6,0-1-0.5-0.9-1.1l0.4-2.7c0.1-0.6,0.6-1.1,1.2-1.1h59.3c0.6,0,1,0.5,0.9,1.1
				l-0.4,2.7C279.6,317.3,279,317.8,278.4,317.8z"/>
			<path class="st32" d="M222.9,346.6H215c-0.6,0-1.1-0.5-1-1.1l3.5-24.5c0.1-0.6,0.7-1.1,1.3-1.1h7.8c0.6,0,1.1,0.5,1,1.1
				l-3.5,24.5C224.1,346.1,223.5,346.6,222.9,346.6z"/>
			<path class="st32" d="M275.1,338.8h-20.8c-0.6,0-1.1-0.5-1-1.1l2.4-16.7c0.1-0.6,0.7-1.1,1.3-1.1h20.8c0.6,0,1.1,0.5,1,1.1
				l-2.4,16.7C276.4,338.3,275.8,338.8,275.1,338.8z"/>
			<path class="st32" d="M275.9,341.7c0.1-0.7-0.3-1.2-0.9-1.2h-21c-0.6,0-1.1,0.5-1.2,1.2l-1.3,9.2h23.1L275.9,341.7z"/>
			<path class="st32" d="M251.3,333.1c0.1-0.7-0.3-1.2-0.9-1.2h-8c-0.6,0-1.1,0.5-1.2,1.2l-2.6,17.8h10.1L251.3,333.1z"/>
			<path class="st32" d="M223.6,349.5c0.1-0.7-0.3-1.2-0.9-1.2h-8c-0.6,0-1.1,0.5-1.2,1.2l-0.2,1.3h10.1L223.6,349.5z"/>
			<path class="st32" d="M236.7,337.2h-7.8c-0.6,0-1.1-0.5-1-1.1l2.2-15.2c0.1-0.6,0.7-1.1,1.3-1.1h7.8c0.6,0,1.1,0.5,1,1.1
				l-2.2,15.2C237.9,336.7,237.3,337.2,236.7,337.2z"/>
			<path class="st32" d="M243.1,319.8l-1.3,9.3c-0.1,0.7,0.3,1.2,0.9,1.2h8c0.6,0,1.1-0.5,1.2-1.2l1.3-9.3H243.1z"/>
			<path class="st32" d="M237.8,340c0.1-0.7-0.3-1.2-0.9-1.2h-8c-0.6,0-1.1,0.5-1.2,1.2l-1.6,10.8h10.1L237.8,340z"/>
			<polygon class="st37" points="222.8,326.8 218.1,326.8 218.9,321.4 223.6,321.4 			"/>
			<path class="st36" d="M217.9,328.3l-0.1,0.9h7.6l0.1-0.9H217.9z M217.5,331h7.6l0.1-0.9h-7.6L217.5,331z M217.3,332.7h7.6
				l0.1-0.9h-7.6L217.3,332.7z M217,334.5h7.6l0.1-0.9h-7.6L217,334.5z M216.8,336.2h3.7l0.1-0.9h-3.7L216.8,336.2z"/>
			<polygon class="st22" points="235.3,326.8 230.6,326.8 231.4,321.4 236.1,321.4 			"/>
			<path class="st36" d="M230.4,328.3l-0.1,0.9h7.6l0.1-0.9H230.4z M230,331h7.6l0.1-0.9h-7.6L230,331z M229.7,332.7h7.6l0.1-0.9
				h-7.6L229.7,332.7z M229.5,334.5h7.6l0.1-0.9h-7.6L229.5,334.5z M229.2,336.2h3.7l0.1-0.9h-3.7L229.2,336.2z"/>
			<polygon class="st27" points="246.4,338.8 241.7,338.8 242.5,333.4 247.2,333.4 			"/>
			<path class="st36" d="M241.5,340.4l-0.1,0.9h7.6l0.1-0.9H241.5z M241.1,343h7.6l0.1-0.9h-7.6L241.1,343z M240.8,344.8h7.6
				l0.1-0.9H241L240.8,344.8z M240.6,346.5h7.6l0.1-0.9h-7.6L240.6,346.5z M240.3,348.3h3.7l0.1-0.9h-3.7L240.3,348.3z"/>
			<path class="st36" d="M244.3,320.6l-0.1,0.9h7.6l0.1-0.9H244.3z M243.9,323.3h7.6l0.1-0.9h-7.6L243.9,323.3z M243.7,325h3.5
				l0.1-0.9h-3.5L243.7,325z"/>
			<polygon class="st27" points="276.3,326.8 256.3,326.8 257.1,321.4 277.1,321.4 			"/>
			<path class="st36" d="M256.1,328.3l-0.1,0.9h20l0.1-0.9H256.1z M255.7,331h11.9l0.1-0.9h-11.9L255.7,331z"/>
			<polygon class="st39" points="232.5,345.8 227.8,345.8 228.6,340.4 233.3,340.4 			"/>
			<path class="st36" d="M227.6,347.4l-0.1,0.9h7.6l0.1-0.9H227.6z M227.2,350.1h4.9l0.1-0.9h-4.9L227.2,350.1z"/>
			<polygon class="st30" points="220.4,343.3 215.7,343.3 216.5,337.9 221.2,337.9 			"/>
			<path class="st36" d="M215.5,344.8l-0.1,0.9h7.6l0.1-0.9H215.5z"/>
		</g>
	</g>
	<g>
		<path class="st43" d="M150.2,346.3L150.2,346.3c0.2,0,0.3,0,0.5,0c1.6,0,3,1.2,3.1,2.8l5.3,55.5c0.1,1.1,1.1,2,2.2,2h33.4
			c1.7,0,3.1,1.4,3.1,3.1c0,1.7-1.4,3.1-3.1,3.1h-33.4c-2.6,0-4.9-1.1-6.4-3c-1.8,0.1-9,0.7-9,0.7l-7.3-2.3l-6.6-62H150.2z"/>
		<path class="st44" d="M142.5,406.6c-1.1,0-2.1-0.9-2.2-2l-5.3-55.5c-0.2-1.6-1.5-2.8-3.1-2.8l0,0c-1.8,0-3.3,1.6-3.1,3.4l5.3,55.5
			c0.4,4.3,4.1,7.6,8.4,7.6H176c1.7,0,3.1-1.4,3.1-3.1l0,0c0-1.7-1.4-3.1-3.1-3.1H142.5z"/>
		<rect x="161.5" y="412.8" class="st44" width="5.1" height="47.1"/>
		<path class="st46" d="M145.9,459.9L145.9,459.9c0-2.8,2.3-5.1,5.1-5.1h26c2.8,0,5.1,2.3,5.1,5.1l0,0H145.9z"/>
		<path class="st46" d="M166.3,417.7h-4.6c-1.6,0-3.1-0.8-3.9-2.1l-1.7-2.7H172l-1.7,2.7C169.4,416.9,167.9,417.7,166.3,417.7z"/>
	</g>
	<g>
		<path class="st8" d="M208.2,366.9c-2.5-1.2-16.5-3.1-19-4.2c-3.4-1.5-6-5.5-7.7-8.8c-0.9-1.8-1.7-3.8-2.4-5.7l-10.5,5.5
			c1.4,2.4,3,4.8,4.7,7c2.7,3.4,5.8,6.6,9.6,8.6c4,2.1,20.4,2.4,24.9,1.7C211.4,370.2,210.6,368,208.2,366.9z"/>
		<path class="st49" d="M171.7,336.8c-2.8-1.5-8.5-1.2-8.7,2.8c-0.2,2.3,1.2,4.9,2.1,7c1,2.4,2.1,4.6,3.4,6.9c0,0.1,0.1,0.2,0.1,0.2
			l11.6-4.8C177.6,345.7,175.2,338.7,171.7,336.8z"/>
		<path class="st8" d="M218.3,366c0.9,0.9,1.6,2.1,1.6,3.3c0,1.3-1,3.8-1.9,3c-0.8-0.7-1-1.9-2-1.8c-1,0-2,0.6-3,1
			c-2.9,1.1-11.6-0.4-7.9-4.9C208,363,215.2,363.1,218.3,366z"/>
		<path class="st8" d="M237.5,452c0.6,0.9,1.4,1.9,2.5,1.9c1.8,0,2-2.7,1.5-4.4c-0.5-1.9-1-3.8-1.5-5.7l-5.8,1.7
			C234.8,447.8,236.4,450.3,237.5,452z"/>
		<path class="st50" d="M222.9,396.7c-4.7-5.1-33.8-11.5-47.5-15.7c-10.2-3.1-20.8-4.9-22.3,8.9c-0.7,6,2.4,12.1,7.5,15.2
			c5.6,3.4,12.6,3.1,19.1,2.7c12.4-0.8,20-1.3,32.4-2.1c1.2,16.2,15,22,21.2,40l9.3-1.9C236.9,435.3,225.2,399.7,222.9,396.7z"/>
		<path class="st50" d="M150.8,405.1c5.6,3.4,12.6,3.1,19.1,2.7c12.9-0.8,25.7-1.7,38.6-2.5c2.1-0.1,4.4-0.4,5.6-2
			c1.5-1.9,0.8-4.8-0.9-6.5c-1.7-1.7-4.1-2.5-6.4-3.2c-13.7-4.2-27.4-8.4-41.1-12.6c-10.2-3.1-20.8-4.9-22.3,8.9
			C142.6,395.9,145.7,402,150.8,405.1z"/>
		<path class="st49" d="M151.1,347.1c0.7,5.2,2.7,10.3,2.6,15.6c-0.1,5.3-2.4,10.5-6.2,14.1c-2.4,2.2-5.6,4.8-4.8,7.9
			c0.8,2.8,4.3,3.7,7.2,4c6.3,0.7,13.6,1.2,18.3-3.2c2.9-2.7,4.1-6.6,5-10.4c1.6-6.7,2.6-13.6,2.8-20.5c0.2-5.9-0.2-12.2-3.6-17
			c-3.4-4.8-7.2-8-12.7-6.3C153.4,337.4,150.4,341.9,151.1,347.1z"/>
		<path class="st51" d="M234.9,448c0.4,0.6,2,0.9,2.7,1c0.5,0,3-1.1,3.6-0.9c0.4,0.1,1.8,5.3,3.6,6.4c1.8,1.1,3.8,1.7,5.7,2.5
			c0.7,0.3,1.3,0.6,1.9,1.1c0.5,0.5,0.9,1.2,0.8,1.9c0,0.1,0,0.1-0.1,0.2h-11.7c-0.3-0.4-0.6-0.8-0.9-1.3c-1.1-1.5-2.1-3.1-3.2-4.6
			c-0.3,1.7-0.6,3.6-1,5.8h-1.3C234.5,458.3,233.4,449.8,234.9,448z"/>
		<path class="st8" d="M208.8,452c0.2,0.9,0.6,1.9,1.4,1.9c1.5,0,2.3-2.7,2.4-4.4c0.1-1.9,0.2-3.8,0.4-5.7l-5,1.7
			C207.9,447.8,208.4,450.3,208.8,452z"/>
		<path class="st50" d="M214.9,401c-1.1-7.2-12-5.1-13.1,0.1c-3.5,16.2,5.4,26.6,5.4,44.6l7.9-1.9C213,435.6,215.7,406.3,214.9,401z
			"/>
		<path class="st51" d="M207.8,448c0.4,0.6,2,0.9,2.7,1c0.5,0,3-1.1,3.6-0.9c0.4,0.1,1.8,5.3,3.6,6.4c1.8,1.1,3.8,1.7,5.7,2.5
			c0.7,0.3,1.3,0.6,1.9,1.1c0.5,0.5,0.9,1.2,0.8,1.9c0,0.1,0,0.1-0.1,0.2h-11.7c-0.3-0.4-0.6-0.8-0.9-1.3c-1.1-1.5-2.1-3.1-3.2-4.6
			c-0.3,1.7-0.6,3.6-1,5.8h-1.3C207.4,458.3,206.2,449.8,207.8,448z"/>
		<path class="st11" d="M201.5,366.3c-2.5-1.2-16.5-2.5-19-3.6c-3.4-1.5-6-5.5-7.7-8.8c-0.9-1.8-1.7-3.8-2.4-5.7l-10.5,5.5
			c1.4,2.4,3,4.8,4.7,7c2.7,3.4,5.8,6.6,9.6,8.6c4,2.1,20.4,1.8,24.9,1.1C204.7,369.6,203.9,367.4,201.5,366.3z"/>
		<path class="st49" d="M170.5,343.5c-1.2-2.7-2.9-5.3-5.5-6.8c-2.8-1.5-8.5-1.2-8.7,2.8c-0.2,2.3,1.2,4.9,2.1,7
			c1,2.4,2.1,4.6,3.4,6.9c0,0.1,0.1,0.2,0.1,0.2l11.6-4.8C172.9,347.3,171.2,345.1,170.5,343.5z"/>
		<path class="st11" d="M211.5,361.4c1.2,0.5,2.2,1.4,2.7,2.6c0.5,1.2,0.3,3.9-0.8,3.4c-1-0.4-1.5-1.4-2.5-1c-1,0.4-1.7,1.2-2.4,1.9
			c-2.3,2-11,3.5-9.1-2C200.8,362.1,207.6,359.7,211.5,361.4z"/>
		<g>
			<path class="st8" d="M160.8,319.2c0.5-0.9,5.9,1.8,6.2,2.5c0.3,0.7,0.7,8.1,1.8,12.8c0.2,1-9.8-2.1-9.1-3.3
				C160.9,329.3,162,321.7,160.8,319.2z"/>
			<path class="st11" d="M176.2,312.5c-1.9-7.7-12.4-6.1-14.9-5.3c-2.5,0.8-2.6,4.3-2.8,6.9c-0.1,1.6,0.4,3.2,1.4,4.5
				c0.9,1.2,4.9,3.1,5.1,3.1c1.5,2.6,3.9,5.5,6.4,5.4c1.1,0,2.1-0.7,2.8-1.6c0.6-0.9,1-2,1.4-3C176.6,319.2,177,315.8,176.2,312.5z"
				/>
			<path class="st16" d="M158,316.9c-0.9-1.1-1.6-2.4-1.8-3.8c-0.2-1.7,0.3-3.4,1.3-4.8c1.7-2.5,6.1-5.8,9.6-5.8
				c3.8-0.1,10.3,3.7,9.6,8.3c-0.2,1.4-1,1.4-2.3,1.9c-1.8,0.6-4.1,1-5.6,2.1c-1.7,1.4-1,4.7-4.5,5.7c-1.2,0.3-2.3,2.4-3.1,4
				C160.3,323.5,158.9,318,158,316.9z"/>
			<path class="st16" d="M154.7,306.8c-1.9-0.5-4.1-0.4-5.8,0.6c-1.1,0.7-1.9,1.7-2.5,2.7c-1.7,2.9-2.5,6.3-2.3,9.6
				c0.5,6.1,4.5,11.8,4.1,17.9c-0.1,0.9-0.2,1.8-0.7,2.6c-0.4,0.8-1.2,1.4-2.1,1.6c3,0.7,6.3-0.4,8.4-2.7c1.4-1.5,2.2-3.5,2.8-5.5
				c1.4-4.8,1.3-10.1-0.1-14.9c-0.3-1.1-0.8-2.3-0.8-3.4c0-1.2,0.4-2.4,1.4-3.1c0.8-0.5,2.3-0.4,2.5-1.6
				C160,308.5,156.2,307.2,154.7,306.8z"/>
			<path class="st11" d="M162.8,317.5c-0.2,0.2-0.3,0.4-0.3,0.7c-0.2,0.8,0,1.6,0.4,2.3c0.4,0.7,1.1,1.2,1.9,1.3
				c0.3,0.1,0.7,0.1,0.9-0.1c0.9-0.6,0.5-2.6,0-3.3C165.2,317.6,163.6,316.8,162.8,317.5z"/>
		</g>
	</g>
	<g>
		<g>
			
				<rect x="177" y="416.8" transform="matrix(9.203114e-02 -0.9958 0.9958 9.203114e-02 -217.0369 597.8824)" class="st33" width="84.6" height="2.3"/>
		</g>
		<g>
			
				<rect x="364.5" y="375.7" transform="matrix(0.9957 -9.220485e-02 9.220485e-02 0.9957 -36.9793 35.5006)" class="st33" width="2.3" height="84.6"/>
		</g>
		<path class="st33" d="M382.7,375.8H202.4c-1.3,0-2.4-1.1-2.4-2.4l0,0c0-1.3,1.1-2.4,2.4-2.4h180.3c1.3,0,2.4,1.1,2.4,2.4l0,0
			C385.1,374.8,384,375.8,382.7,375.8z"/>
	</g>
	<g>
		<polygon class="st34" points="325.3,371 340.3,371 347.7,354.1 332.8,354.1 		"/>
		<polygon class="st33" points="327,371 341.9,371 349.4,354.1 334.5,354.1 		"/>
		<path class="st35" d="M324.1,368.8h28.7c0.6,0,1.1,0.5,1.1,1.1l0,0c0,0.6-0.5,1.1-1.1,1.1h-28.7c-0.6,0-1.1-0.5-1.1-1.1l0,0
			C323,369.3,323.5,368.8,324.1,368.8z"/>
		<path class="st34" d="M368.2,359.8c2.8,0,4.7-2.2,4.3-5l-6.5-45.9c-0.4-2.8-3-5-5.7-5h-59.1c-2.8,0-4.7,2.2-4.3,5l6.5,45.9
			c0.4,2.8,3,5,5.7,5H368.2z"/>
		<path class="st35" d="M370.9,359.8c2.8,0,4.7-2.2,4.3-5l-6.5-45.9c-0.4-2.8-3-5-5.7-5h-59.1c-2.8,0-4.7,2.2-4.3,5l6.5,45.9
			c0.4,2.8,3,5,5.7,5H370.9z"/>
		<path class="st36" d="M370.4,356.1c1.6,0,2.7-1.3,2.5-2.9l-6.1-42.7c-0.2-1.6-1.7-2.9-3.3-2.9h-59.1c-1.6,0-2.7,1.3-2.5,2.9
			l6.1,42.7c0.2,1.6,1.7,2.9,3.3,2.9H370.4z"/>
		<g>
			<path class="st32" d="M365,317.8h-59.3c-0.6,0-1.1-0.5-1.2-1.1L304,314c-0.1-0.6,0.3-1.1,0.9-1.1h59.3c0.6,0,1.1,0.5,1.2,1.1
				l0.4,2.7C366,317.3,365.6,317.8,365,317.8z"/>
			<path class="st32" d="M317.9,346.6h-7.8c-0.6,0-1.2-0.5-1.3-1.1l-3.7-24.5c-0.1-0.6,0.3-1.1,1-1.1h7.8c0.6,0,1.2,0.5,1.3,1.1
				l3.7,24.5C319,346.1,318.5,346.6,317.9,346.6z"/>
			<path class="st32" d="M367.9,338.8H347c-0.6,0-1.2-0.5-1.3-1.1l-2.5-16.7c-0.1-0.6,0.3-1.1,1-1.1H365c0.6,0,1.2,0.5,1.3,1.1
				l2.5,16.7C368.9,338.3,368.5,338.8,367.9,338.8z"/>
			<path class="st32" d="M369.4,341.7c-0.1-0.7-0.7-1.2-1.3-1.2h-21c-0.6,0-1,0.5-0.9,1.2l1.4,9.2h23.1L369.4,341.7z"/>
			<path class="st32" d="M342.3,333.1c-0.1-0.7-0.7-1.2-1.3-1.2h-8c-0.6,0-1,0.5-0.9,1.2l2.7,17.8H345L342.3,333.1z"/>
			<path class="st32" d="M319.5,349.5c-0.1-0.7-0.7-1.2-1.3-1.2h-8c-0.6,0-1,0.5-0.9,1.2l0.2,1.3h10.1L319.5,349.5z"/>
			<path class="st32" d="M329,337.2h-7.8c-0.6,0-1.2-0.5-1.3-1.1l-2.3-15.2c-0.1-0.6,0.3-1.1,1-1.1h7.8c0.6,0,1.2,0.5,1.3,1.1
				l2.3,15.2C330,336.7,329.6,337.2,329,337.2z"/>
			<path class="st32" d="M330.2,319.8l1.4,9.3c0.1,0.7,0.7,1.2,1.3,1.2h8c0.6,0,1-0.5,0.9-1.2l-1.4-9.3H330.2z"/>
			<path class="st32" d="M330.9,340c-0.1-0.7-0.7-1.2-1.3-1.2h-8c-0.6,0-1,0.5-0.9,1.2l1.6,10.8h10.1L330.9,340z"/>
			<polygon class="st37" points="312,326.8 307.3,326.8 306.5,321.4 311.2,321.4 			"/>
			<path class="st36" d="M307.5,328.3l0.1,0.9h7.6l-0.1-0.9H307.5z M307.9,331h7.6l-0.1-0.9h-7.6L307.9,331z M308.2,332.7h7.6
				l-0.1-0.9h-7.6L308.2,332.7z M308.5,334.5h7.6l-0.1-0.9h-7.6L308.5,334.5z M308.7,336.2h3.7l-0.1-0.9h-3.7L308.7,336.2z"/>
			<polygon class="st22" points="324.5,326.8 319.8,326.8 319,321.4 323.7,321.4 			"/>
			<path class="st36" d="M320,328.3l0.1,0.9h7.6l-0.1-0.9H320z M320.4,331h7.6l-0.1-0.9h-7.6L320.4,331z M320.7,332.7h7.6l-0.1-0.9
				h-7.6L320.7,332.7z M320.9,334.5h7.6l-0.1-0.9h-7.6L320.9,334.5z M321.2,336.2h3.7l-0.1-0.9H321L321.2,336.2z"/>
			<polygon class="st27" points="339.1,338.8 334.4,338.8 333.6,333.4 338.3,333.4 			"/>
			<path class="st36" d="M334.6,340.4l0.1,0.9h7.6l-0.1-0.9H334.6z M335,343h7.6l-0.1-0.9h-7.6L335,343z M335.3,344.8h7.6l-0.1-0.9
				h-7.6L335.3,344.8z M335.6,346.5h7.6l-0.1-0.9h-7.6L335.6,346.5z M335.8,348.3h3.7l-0.1-0.9h-3.7L335.8,348.3z"/>
			<path class="st36" d="M331.7,320.6l0.1,0.9h7.6l-0.1-0.9H331.7z M332.1,323.3h7.6l-0.1-0.9H332L332.1,323.3z M332.4,325h3.5
				l-0.1-0.9h-3.5L332.4,325z"/>
			<polygon class="st27" points="365.5,326.8 345.5,326.8 344.7,321.4 364.7,321.4 			"/>
			<path class="st36" d="M345.7,328.3l0.1,0.9h20l-0.1-0.9H345.7z M346.1,331H358l-0.1-0.9H346L346.1,331z"/>
			<polygon class="st39" points="327.3,345.8 322.6,345.8 321.8,340.4 326.5,340.4 			"/>
			<path class="st36" d="M322.9,347.4l0.1,0.9h7.6l-0.1-0.9H322.9z M323.3,350.1h4.9l-0.1-0.9h-4.9L323.3,350.1z"/>
			<polygon class="st30" points="314.5,343.3 309.8,343.3 309,337.9 313.7,337.9 			"/>
			<path class="st36" d="M310,344.8l0.1,0.9h7.6l-0.1-0.9H310z"/>
		</g>
	</g>
	<g>
		<path class="st43" d="M434,346.3L434,346.3c-0.2,0-0.3,0-0.5,0c-1.6,0-3,1.2-3.1,2.8l-5.3,55.5c-0.1,1.1-1.1,2-2.2,2h-33.4
			c-1.7,0-3.1,1.4-3.1,3.1c0,1.7,1.4,3.1,3.1,3.1h33.4c2.6,0,4.9-1.1,6.4-3c1.8,0.1,9,0.7,9,0.7l7.3-2.3l6.6-62H434z"/>
		<path class="st44" d="M441.6,406.6c1.1,0,2.1-0.9,2.2-2l5.3-55.5c0.2-1.6,1.5-2.8,3.1-2.8l0,0c1.8,0,3.3,1.6,3.1,3.4l-5.3,55.5
			c-0.4,4.3-4.1,7.6-8.4,7.6h-33.4c-1.7,0-3.1-1.4-3.1-3.1l0,0c0-1.7,1.4-3.1,3.1-3.1H441.6z"/>
		
			<rect x="417.6" y="412.8" transform="matrix(-1 -1.224647e-16 1.224647e-16 -1 840.2983 872.7244)" class="st44" width="5.1" height="47.1"/>
		<path class="st46" d="M438.2,459.9L438.2,459.9c0-2.8-2.3-5.1-5.1-5.1h-26c-2.8,0-5.1,2.3-5.1,5.1l0,0H438.2z"/>
		<path class="st46" d="M417.8,417.7h4.6c1.6,0,3.1-0.8,3.9-2.1l1.7-2.7h-15.9l1.7,2.7C414.8,416.9,416.3,417.7,417.8,417.7z"/>
	</g>
	<g>
		<path class="st8" d="M376,366.9c2.5-1.2,16.5-3.1,19-4.2c3.4-1.5,6-5.5,7.7-8.8c0.9-1.8,1.7-3.8,2.4-5.7l10.5,5.5
			c-1.4,2.4-3,4.8-4.7,7c-2.7,3.4-5.8,6.6-9.6,8.6c-4,2.1-20.4,2.4-24.9,1.7C372.8,370.2,373.5,368,376,366.9z"/>
		<path class="st31" d="M412.5,336.8c2.8-1.5,8.5-1.2,8.7,2.8c0.2,2.3-1.2,4.9-2.1,7c-1,2.4-2.1,4.6-3.4,6.9c0,0.1-0.1,0.2-0.1,0.2
			l-11.6-4.8C406.5,345.7,408.9,338.7,412.5,336.8z"/>
		<path class="st8" d="M365.9,366c-0.9,0.9-1.6,2.1-1.6,3.3c0,1.3,1,3.8,1.9,3c0.8-0.7,1-1.9,2-1.8c1,0,2,0.6,3,1
			c2.9,1.1,11.6-0.4,7.9-4.9C376.2,363,369,363.1,365.9,366z"/>
		<path class="st8" d="M346.6,452c-0.6,0.9-1.4,1.9-2.5,1.9c-1.8,0-2-2.7-1.5-4.4c0.5-1.9,1-3.8,1.5-5.7l5.8,1.7
			C349.3,447.8,347.8,450.3,346.6,452z"/>
		<path class="st50" d="M361.2,396.7c4.7-5.1,33.8-11.5,47.5-15.7c10.2-3.1,20.8-4.9,22.3,8.9c0.7,6-2.4,12.1-7.5,15.2
			c-5.6,3.4-12.6,3.1-19.1,2.7c-12.4-0.8-20-1.3-32.4-2.1c-1.2,16.2-15,22-21.2,40l-9.3-1.9C347.2,435.3,358.9,399.7,361.2,396.7z"
			/>
		<path class="st50" d="M433.4,405.1c-5.6,3.4-12.6,3.1-19.1,2.7c-12.9-0.8-25.7-1.7-38.6-2.5c-2.1-0.1-4.4-0.4-5.6-2
			c-1.5-1.9-0.8-4.8,0.9-6.5c1.7-1.7,4.1-2.5,6.4-3.2c13.7-4.2,27.4-8.4,41.1-12.6c10.2-3.1,20.8-4.9,22.3,8.9
			C441.5,395.9,438.5,402,433.4,405.1z"/>
		<path class="st31" d="M433.1,347.1c-0.7,5.2-2.7,10.3-2.6,15.6c0.1,5.3,2.4,10.5,6.2,14.1c2.4,2.2,5.6,4.8,4.8,7.9
			c-0.8,2.8-4.3,3.7-7.2,4c-6.3,0.7-13.6,1.2-18.3-3.2c-2.9-2.7-4.1-6.6-5-10.4c-1.6-6.7-2.6-13.6-2.8-20.5
			c-0.2-5.9,0.2-12.2,3.6-17c3.4-4.8,7.2-8,12.7-6.3C430.7,337.4,433.8,341.9,433.1,347.1z"/>
		<path class="st51" d="M349.3,448c-0.4,0.6-2,0.9-2.7,1c-0.5,0-3-1.1-3.6-0.9c-0.4,0.1-1.8,5.3-3.6,6.4c-1.8,1.1-3.8,1.7-5.7,2.5
			c-0.7,0.3-1.3,0.6-1.9,1.1c-0.5,0.5-0.9,1.2-0.8,1.9c0,0.1,0,0.1,0.1,0.2h11.7c0.3-0.4,0.6-0.8,0.9-1.3c1.1-1.5,2.1-3.1,3.2-4.6
			c0.3,1.7,0.6,3.6,1,5.8h1.3C349.6,458.3,350.8,449.8,349.3,448z"/>
		<path class="st8" d="M375.3,452c-0.2,0.9-0.6,1.9-1.4,1.9c-1.5,0-2.3-2.7-2.4-4.4c-0.1-1.9-0.2-3.8-0.4-5.7l5,1.7
			C376.3,447.8,375.8,450.3,375.3,452z"/>
		<path class="st50" d="M369.3,401c1.1-7.2,12-5.1,13.1,0.1c3.5,16.2-5.4,26.6-5.4,44.6l-7.9-1.9C371.2,435.6,368.4,406.3,369.3,401
			z"/>
		<path class="st51" d="M376.4,448c-0.4,0.6-2,0.9-2.7,1c-0.5,0-3-1.1-3.6-0.9c-0.4,0.1-1.8,5.3-3.6,6.4c-1.8,1.1-3.8,1.7-5.7,2.5
			c-0.7,0.3-1.3,0.6-1.9,1.1c-0.5,0.5-0.9,1.2-0.8,1.9c0,0.1,0,0.1,0.1,0.2h11.7c0.3-0.4,0.6-0.8,0.9-1.3c1.1-1.5,2.1-3.1,3.2-4.6
			c0.3,1.7,0.6,3.6,1,5.8h1.3C376.8,458.3,377.9,449.8,376.4,448z"/>
		<path class="st11" d="M382.7,366.3c2.5-1.2,16.5-2.5,19-3.6c3.4-1.5,6-5.5,7.7-8.8c0.9-1.8,1.7-3.8,2.4-5.7l10.5,5.5
			c-1.4,2.4-3,4.8-4.7,7c-2.7,3.4-5.8,6.6-9.6,8.6c-4,2.1-20.4,1.8-24.9,1.1C379.4,369.6,380.2,367.4,382.7,366.3z"/>
		<path class="st31" d="M413.7,343.5c1.2-2.7,2.9-5.3,5.5-6.8c2.8-1.5,8.5-1.2,8.7,2.8c0.2,2.3-1.2,4.9-2.1,7
			c-1,2.4-2.1,4.6-3.4,6.9c0,0.1-0.1,0.2-0.1,0.2l-11.6-4.8C411.3,347.3,413,345.1,413.7,343.5z"/>
		<path class="st11" d="M372.6,361.4c-1.2,0.5-2.2,1.4-2.7,2.6c-0.5,1.2-0.3,3.9,0.8,3.4c1-0.4,1.5-1.4,2.5-1c1,0.4,1.7,1.2,2.4,1.9
			c2.3,2,11,3.5,9.1-2C383.3,362.1,376.5,359.7,372.6,361.4z"/>
		<g>
			<path class="st8" d="M423.4,319.2c-0.5-0.9-5.9,1.8-6.2,2.5c-0.3,0.7-0.7,8.1-1.8,12.8c-0.2,1,9.8-2.1,9.1-3.3
				C423.3,329.3,422.1,321.7,423.4,319.2z"/>
			<path class="st11" d="M407.9,312.5c1.9-7.7,12.4-6.1,14.9-5.3c2.5,0.8,2.6,4.3,2.8,6.9c0.1,1.6-0.4,3.2-1.4,4.5
				c-0.9,1.2-4.9,3.1-5.1,3.1c-1.5,2.6-3.9,5.5-6.4,5.4c-1.1,0-2.1-0.7-2.8-1.6c-0.6-0.9-1-2-1.4-3
				C407.5,319.2,407.1,315.8,407.9,312.5z"/>
			<path class="st11" d="M421.4,317.5c0.2,0.2,0.3,0.4,0.3,0.7c0.2,0.8,0,1.6-0.4,2.3c-0.4,0.7-1.1,1.2-1.9,1.3
				c-0.3,0.1-0.7,0.1-0.9-0.1c-0.9-0.6-0.5-2.6,0-3.3C418.9,317.6,420.6,316.8,421.4,317.5z"/>
			<path class="st16" d="M432.3,312.8c-1.4-1.9,0.1-10.4-15.2-10.4c-3.8,0-10.3,3.7-9.6,8.3c0.2,1.4,1,1.4,2.3,1.9
				c1.8,0.6,4.1,1,5.6,2.1c1.3,1,5.6,19.9,0.1,24c13.1,1.4,19.4,1.5,21.1-4.3C438.6,327.1,436.9,318.9,432.3,312.8z"/>
		</g>
	</g>
</g>
<g>
	<g>
		<path class="st3" d="M472.8,133l8.1,0.2c0.4,0,0.8,0.4,0.8,0.8l-0.4,16.5c0,0.4-0.4,0.8-0.8,0.8l-8.1-0.2c-0.4,0-0.8-0.4-0.8-0.8
			l0.4-16.5C472,133.3,472.3,133,472.8,133z"/>
		<path class="st3" d="M487.2,132.5c5.3-4.7,7.2-9.4,8.1-11.2c1-2.1,1.7-3.7,1.7-3.7c0.4-1.2,1.6-1.8,2.8-1.5l1.1,0.3
			c1.2,0.4,1.8,1.6,1.5,2.8l-2,7.6c-0.4,1.3,0.5,2.7,1.9,2.8l2.3,0.2l7.7,0.2c1.2,0,2.2,1.1,2.2,2.3l0,1.2c0,1.2-1.1,2.2-2.3,2.2
			l-6.9-0.2l0,0l11.8,0.3c0.3,0,0.5,0.3,0.5,0.6l-0.1,4.6c0,0.3-0.3,0.5-0.6,0.5l-2.1-0.1c0.3,0,0.5,0.3,0.5,0.6l-0.1,3.8
			c0,0.3-0.3,0.5-0.6,0.5l-2.3-0.1c0.1,0.1,0.1,0.2,0.1,0.3l-0.1,3.8c0,0.3-0.3,0.5-0.6,0.5l-7.1-0.2c-1,0-3.8,0.4-6.2,0.7
			c-2.9,0.4-5.9,0.5-8.8,0.2c-3.5-0.4-7.5-1.8-7.5-2.3c0-0.9,0.4-14.3,0.4-14.3s1.9-0.3,3-1.2C485.8,133.8,486.7,132.9,487.2,132.5z
			"/>
	</g>
	<g>
		<path class="st49" d="M435.9,140.6l5,0.1c0.3,0,0.5,0.2,0.5,0.5l-0.3,10.2c0,0.3-0.2,0.5-0.5,0.5l-5-0.1c-0.3,0-0.5-0.2-0.5-0.5
			l0.3-10.2C435.4,140.8,435.6,140.6,435.9,140.6z"/>
		<path class="st49" d="M444.9,140.3c3.3-2.9,4.5-5.8,5-6.9c0.6-1.3,1.1-2.3,1.1-2.3c0.2-0.7,1-1.1,1.7-0.9l0.7,0.2
			c0.7,0.2,1.1,1,0.9,1.7l-1.2,4.7c-0.2,0.8,0.3,1.7,1.2,1.8l1.4,0.1l4.8,0.1c0.8,0,1.4,0.7,1.3,1.4l0,0.7c0,0.8-0.7,1.4-1.4,1.3
			l-4.3-0.1l0,0l7.3,0.2c0.2,0,0.3,0.2,0.3,0.3l-0.1,2.8c0,0.2-0.2,0.3-0.3,0.3l-1.3,0c0.2,0,0.3,0.2,0.3,0.3l-0.1,2.4
			c0,0.2-0.2,0.3-0.3,0.3l-1.4,0c0,0.1,0.1,0.1,0.1,0.2l-0.1,2.4c0,0.2-0.2,0.3-0.3,0.3l-4.4-0.1c-0.6,0-2.3,0.2-3.9,0.5
			c-1.8,0.3-3.6,0.3-5.4,0.1c-2.1-0.2-4.6-1.1-4.6-1.4c0-0.5,0.2-8.9,0.2-8.9s1.2-0.2,1.8-0.8C443.9,141.1,444.5,140.6,444.9,140.3z
			"/>
	</g>
	<g>
		<path class="st27" d="M467.6,164.1l4,0.1c0.2,0,0.4,0.2,0.4,0.4l-0.2,8c0,0.2-0.2,0.4-0.4,0.4l-4-0.1c-0.2,0-0.4-0.2-0.4-0.4
			l0.2-8C467.3,164.3,467.4,164.1,467.6,164.1z"/>
		<path class="st27" d="M474.7,163.9c2.6-2.3,3.5-4.6,4-5.5c0.5-1,0.9-1.8,0.9-1.8c0.2-0.6,0.8-0.9,1.4-0.7l0.5,0.2
			c0.6,0.2,0.9,0.8,0.7,1.4l-1,3.7c-0.2,0.7,0.3,1.3,0.9,1.4l1.1,0.1l3.8,0.1c0.6,0,1.1,0.5,1.1,1.1l0,0.6c0,0.6-0.5,1.1-1.1,1.1
			l-3.4-0.1l0,0l5.8,0.1c0.1,0,0.3,0.1,0.3,0.3l-0.1,2.2c0,0.1-0.1,0.3-0.3,0.3l-1,0c0.1,0,0.3,0.1,0.3,0.3l0,1.9
			c0,0.1-0.1,0.3-0.3,0.3l-1.1,0c0,0,0,0.1,0,0.1l0,1.9c0,0.1-0.1,0.3-0.3,0.3l-3.5-0.1c-0.5,0-1.9,0.2-3,0.4
			c-1.4,0.2-2.9,0.2-4.3,0.1c-1.7-0.2-3.7-0.9-3.7-1.1c0-0.4,0.2-7,0.2-7s0.9-0.2,1.4-0.6C474,164.5,474.5,164.1,474.7,163.9z"/>
	</g>
</g>
<g>
	<polygon class="st27" points="568,55.1 574.1,54 567.1,34.2 567.1,34.2 560.9,36.4 568,55.1 	"/>
	<polygon class="st23" points="577.6,34.5 598,38.3 585.2,0.3 571.3,16.8 	"/>
	<path class="st27" d="M562.1,40l15.4-5.4l-6.3-17.7c0,0,0,0,0,0l-15.4,5.4L562.1,40C562.1,40,562.1,40,562.1,40z"/>
	<path class="st52" d="M561,40.4L561,40.4c0.6-0.2,1-0.9,0.8-1.6l-5.4-15.4c-0.2-0.6-0.9-1-1.6-0.8l0,0c-0.6,0.2-1,0.9-0.8,1.6
		l5.4,15.4C559.6,40.3,560.3,40.6,561,40.4z"/>
	<polygon class="st3" points="555.3,38.4 558.5,37.2 554.8,26.7 554.8,26.7 551.5,27.8 555.2,38.4 	"/>
	<line class="st53" x1="594.5" y1="11.9" x2="613.4" y2="1.1"/>
	<line class="st53" x1="598.8" y1="17.3" x2="620.5" y2="12.6"/>
	<line class="st53" x1="597.1" y1="22.6" x2="618.8" y2="25.2"/>
</g>
<g>
	<g>
		<g>
			<path class="st28" d="M695.3,178.2l2.2-11.4l-4.1-0.8c-0.1-1.4-0.4-2.8-0.9-4.1l3.3-2.2l-6.5-9.6l-3.3,2.2
				c-1.1-0.9-2.3-1.7-3.6-2.3l0.7-3.7l-11.4-2.2l-0.7,3.8c-1.3,0.1-2.5,0.4-3.7,0.8l-2.2-3.2l-9.6,6.5l2.1,3.1
				c-0.9,1.1-1.7,2.3-2.4,3.6l-3.9-0.7l-2.2,11.4l3.9,0.7c0.1,1.4,0.4,2.8,0.8,4.1l-3.4,2.3l6.5,9.6l3.4-2.3c1,0.9,2.2,1.6,3.4,2.2
				l-0.8,4.2l11.4,2.2l0.8-4.1c1.5-0.1,3.1-0.5,4.5-0.9l2.4,3.5l9.6-6.5l-2.4-3.6c0.8-1,1.6-2.2,2.2-3.4L695.3,178.2z M670.6,181.7
				c-7.4-1.4-12.3-8.6-10.9-16c1.4-7.4,8.6-12.3,16-10.9c7.4,1.4,12.3,8.6,10.9,16C685.2,178.2,678.1,183.1,670.6,181.7z"/>
		</g>
	</g>
	<g>
		<g>
			<path class="st28" d="M718.4,202.6l1.4-7.4l-2.6-0.5c-0.1-0.9-0.3-1.8-0.6-2.6l2.1-1.4l-4.2-6.2l-2.1,1.4
				c-0.7-0.6-1.5-1.1-2.3-1.5l0.5-2.4l-7.4-1.4l-0.5,2.5c-0.8,0.1-1.6,0.3-2.4,0.5l-1.4-2.1l-6.2,4.2l1.4,2
				c-0.6,0.7-1.1,1.5-1.5,2.3l-2.5-0.5l-1.4,7.4l2.5,0.5c0.1,0.9,0.3,1.8,0.5,2.7l-2.2,1.5l4.2,6.2l2.2-1.5c0.7,0.6,1.4,1,2.2,1.5
				l-0.5,2.7l7.4,1.4l0.5-2.7c1-0.1,2-0.3,2.9-0.6l1.5,2.2l6.2-4.2l-1.6-2.3c0.5-0.7,1-1.4,1.4-2.2L718.4,202.6z M702.4,204.8
				c-4.8-0.9-8-5.6-7.1-10.4c0.9-4.8,5.6-8,10.4-7.1c4.8,0.9,8,5.6,7.1,10.4C711.9,202.6,707.2,205.7,702.4,204.8z"/>
		</g>
	</g>
</g>
<g>
	<path class="st27" d="M288.8,21.5h44.8c2.3,0,4.2,1.9,4.2,4.2v20.1c0,2.3-1.9,4.2-4.2,4.2h-26.3L296.3,61V50.1h-7.5
		c-2.3,0-4.2-1.9-4.2-4.2V25.8C284.5,23.4,286.4,21.5,288.8,21.5z"/>
	<path class="st21" d="M294.7,36.6v-2.1l11.3-5.2v2.3l-8.9,4l8.9,4v2.3L294.7,36.6z M307.3,45l5-19.1h1.7l-5,19.1H307.3z
		 M326.5,36.6l-11.3,5.2v-2.3l8.9-4l-8.9-4v-2.3l11.3,5.2V36.6z"/>
</g>
</svg>
