<svg xmlns="http://www.w3.org/2000/svg" width="1080" height="1080" viewBox="0 0 1080 1080" version="1.1"><path d="M 479.500 14.026 C 459.543 17.578, 436.814 28.014, 421.219 40.785 C 416.939 44.291, 416.939 44.291, 414.376 41.896 C 412.966 40.578, 410.020 36.436, 407.828 32.691 C 404.366 26.776, 403.506 25.923, 401.272 26.191 C 396.673 26.744, 396.137 29.357, 399.413 35.257 C 401.015 38.141, 404.085 42.627, 406.236 45.227 C 408.703 48.208, 409.859 50.423, 409.367 51.227 C 408.939 51.927, 407.194 54.331, 405.490 56.570 C 403.786 58.808, 401.796 62.078, 401.068 63.836 C 399.398 67.868, 397.990 66.905, 394 59 C 389.663 50.409, 386.861 49.102, 383.660 54.177 C 382.441 56.110, 385.508 62.722, 391.362 70.783 C 395.514 76.500, 395.514 76.500, 394.354 82 C 393.582 85.656, 393.161 102.396, 393.096 131.936 C 393.004 174.341, 392.912 176.465, 391.075 178.436 C 385.155 184.783, 381.488 197.888, 382.595 208.740 C 383.839 220.942, 393.105 234.453, 402.073 237.140 C 405.810 238.260, 406 238.515, 406.004 242.408 C 406.015 253.859, 411.749 276.651, 417.448 287.897 C 418.851 290.667, 420 293.112, 420 293.331 C 420 293.549, 413.363 293.960, 405.250 294.243 C 392.856 294.676, 389.433 295.153, 383.821 297.229 C 374.720 300.596, 368.168 304.995, 361.293 312.353 C 340.211 334.917, 340.797 367.546, 362.682 389.717 C 366.680 393.767, 369.400 397.230, 368.726 397.413 C 342.343 404.542, 324.093 418.527, 312.314 440.642 C 306.865 450.872, 304.577 459.737, 302.024 480.500 C 300.875 489.850, 298.848 505.825, 297.522 516 C 296.195 526.175, 294.564 539.450, 293.897 545.500 C 292.786 555.577, 292.364 556.989, 288.869 562.324 C 282.575 571.931, 281.873 577.281, 284.512 595.500 C 285.309 601, 285.977 608.425, 285.995 612 C 286.014 615.575, 286.715 621.409, 287.553 624.965 C 288.916 630.748, 291.269 648.261, 302.172 733.783 C 303.875 747.138, 305.057 758.277, 304.798 758.535 C 304.540 758.793, 301.667 757.678, 298.414 756.057 C 284.822 749.284, 260.994 745.583, 246 747.918 C 219.888 751.983, 199.214 766.504, 191.930 785.895 C 186.786 799.586, 187.320 810.175, 194.195 830.852 C 210.520 879.943, 252.455 925.656, 310.494 957.629 C 322.541 964.265, 321.450 961.810, 318.874 976.500 C 316.985 987.276, 319.058 1000.260, 324.329 1010.662 C 332.386 1026.562, 346.692 1036.511, 366.500 1039.989 C 377.272 1041.881, 415.057 1039.849, 429.048 1036.626 C 447.760 1032.315, 464.469 1025.784, 483.029 1015.524 L 492.558 1010.257 507.029 1010.666 C 514.988 1010.891, 523.413 1011.311, 525.750 1011.599 C 529.927 1012.114, 530 1012.189, 530 1015.990 C 530 1022.866, 530.467 1023, 554.371 1023 C 569.549 1023, 575.942 1022.658, 576.800 1021.800 C 577.460 1021.140, 578 1018.440, 578 1015.800 C 578 1013.160, 578.234 1011, 578.520 1011 C 578.806 1011, 580.943 1012.206, 583.270 1013.681 C 590.432 1018.220, 610.952 1027.582, 622.024 1031.363 C 639.465 1037.318, 649.008 1038.895, 675 1040.114 C 697.583 1041.173, 698.848 1041.133, 707.422 1039.086 C 724.905 1034.912, 736.706 1026.503, 744.406 1012.734 C 749.999 1002.733, 751.437 997.026, 751.396 985 C 751.365 975.885, 750.872 972.403, 748.406 963.855 C 748.057 962.643, 749.849 961.175, 755.216 958.274 C 805.585 931.055, 844.585 892.555, 864.909 849.986 C 870.775 837.699, 876.278 821.429, 877.937 811.467 C 880.662 795.096, 873.495 776.247, 860.254 764.965 C 847.591 754.177, 827.366 747.022, 809.500 747.012 C 796.232 747.004, 775.148 751.993, 765.294 757.471 L 761.088 759.810 761.565 757.155 C 761.827 755.695, 765.628 726.375, 770.012 692 C 774.395 657.625, 778.449 627.925, 779.021 626 C 779.592 624.075, 780.475 617.100, 780.983 610.500 C 781.491 603.900, 782.450 593.775, 783.113 588 C 784.172 578.780, 784.116 576.807, 782.650 571.815 C 781.733 568.688, 779.478 564.159, 777.640 561.751 C 774.298 557.373, 774.298 557.373, 768.582 511.437 C 765.438 486.171, 762.214 462.631, 761.418 459.124 C 753.674 425.019, 722.934 398.736, 687.965 396.321 L 679.430 395.732 685.198 390.230 C 696.699 379.259, 702.104 366.558, 702.074 350.569 C 702.038 331.586, 694.465 316.227, 679.824 305.449 C 668.880 297.393, 658.176 294.049, 643.230 294.017 L 634.959 294 637.017 289.966 C 643.082 278.079, 648.689 256.938, 649.113 244.360 C 649.320 238.221, 649.320 238.221, 653.016 237.113 C 658.793 235.382, 665.526 228.760, 669.216 221.181 C 672.249 214.949, 672.469 213.794, 672.484 204 C 672.498 194.565, 672.215 192.892, 669.692 187.503 C 668.148 184.205, 666.040 180.605, 665.007 179.503 C 663.241 177.619, 663.109 174.889, 662.774 133.500 C 662.428 90.701, 662.355 89.309, 660.107 82.500 C 647.903 45.541, 621.335 26.452, 594.769 35.554 C 590.037 37.175, 590.037 37.175, 578.769 31.604 C 564.878 24.736, 551.453 19.860, 536.740 16.339 C 526.726 13.942, 523.264 13.620, 505 13.392 C 493.725 13.251, 482.250 13.536, 479.500 14.026 M 415.076 119.409 C 414.202 120.462, 413.994 137.562, 414.253 187.159 C 414.587 251.102, 414.677 253.789, 416.731 261.500 C 428.162 304.411, 457.339 334.646, 498.111 345.829 C 555.100 361.460, 616.373 328.935, 635.309 273 C 641.346 255.166, 641.281 256.054, 641.717 186 C 642.181 111.468, 642.608 115.101, 634.170 121.771 C 631.342 124.006, 627.406 126.371, 625.423 127.025 C 621.347 128.371, 612.170 127.951, 601.157 125.917 C 594.135 124.620, 593.547 124.664, 587.657 126.917 C 571.875 132.956, 552.556 139.116, 543 141.156 C 534.291 143.015, 529.259 143.406, 513.500 143.448 C 487.678 143.516, 479.385 141.553, 439.322 125.889 C 428.224 121.550, 418.492 118, 417.695 118 C 416.897 118, 415.719 118.634, 415.076 119.409 M 467.372 166.785 C 458.002 170.120, 453.454 174.472, 456.605 177.087 C 457.819 178.095, 458.539 178.121, 459.834 177.202 C 470.574 169.587, 487.956 168.126, 499.049 173.909 C 502.072 175.484, 503.124 175.630, 504.456 174.656 C 507.036 172.769, 505.370 170.412, 499.678 167.894 C 492.462 164.703, 474.916 164.100, 467.372 166.785 M 559.150 166.936 C 551.319 169.842, 549.378 171.978, 552.099 174.699 C 552.898 175.498, 554.742 175.091, 558.849 173.207 C 563.720 170.973, 565.811 170.625, 574 170.684 C 584.009 170.755, 590.011 172.291, 594.700 175.979 C 597.774 178.397, 599.848 178.560, 600.658 176.449 C 601.489 174.282, 597.395 170.161, 592 167.736 C 585.185 164.672, 566.479 164.217, 559.150 166.936 M 401.285 179.967 C 397.654 182.182, 393.934 187.591, 392.006 193.461 C 389.974 199.650, 390.471 210.899, 393.041 216.873 C 395.090 221.636, 402.695 230, 404.978 230 C 405.648 230, 406 221.045, 406 204 C 406 189.700, 405.663 178.002, 405.250 178.004 C 404.837 178.006, 403.053 178.889, 401.285 179.967 M 649 204 C 649 218.300, 649.337 229.998, 649.750 229.996 C 653.859 229.976, 661.987 220.306, 664.007 213.035 C 666.947 202.452, 664.152 190.226, 657.126 182.937 C 648.896 174.399, 649 174.130, 649 204 M 478.923 185.923 C 470.226 194.620, 482.314 208.925, 491.314 200.585 C 492.747 199.257, 494.211 197.007, 494.568 195.585 C 496.997 185.906, 485.834 179.012, 478.923 185.923 M 564.923 185.923 C 562.631 188.216, 562 189.742, 562 193 C 562 201.690, 571.576 206.258, 577.201 200.250 C 580.612 196.606, 581.383 193.689, 580.022 189.566 C 577.752 182.690, 570.022 180.825, 564.923 185.923 M 521.142 219.891 C 519.416 220.985, 511.156 247.879, 511.795 250.324 C 512.491 252.985, 515.300 253.711, 526.500 254.128 C 536.500 254.500, 536.500 254.500, 536.816 251.750 C 537.217 248.271, 534.305 247, 525.935 247 C 522.671 247, 520 246.693, 520 246.319 C 520 245.944, 521.640 240.248, 523.644 233.660 C 527.135 222.187, 527.211 221.628, 525.453 220.342 C 523.314 218.778, 522.958 218.740, 521.142 219.891 M 564.667 268.667 C 564.300 269.033, 564 271.479, 564 274.102 C 564 280.558, 562.832 283.196, 557.408 288.995 C 549.526 297.422, 541.106 301.237, 530.023 301.402 C 523.758 301.496, 523.500 301.599, 523.500 304 C 523.500 306.345, 523.859 306.519, 529.316 306.802 C 549.092 307.828, 570 290.724, 570 273.518 C 570 269.289, 566.882 266.452, 564.667 268.667 M 386.856 305.316 C 370.041 311.048, 357.176 326.525, 355.115 343.500 C 353.212 359.174, 357.790 372.953, 368.444 383.621 C 378.739 393.930, 389.619 397.958, 407.239 397.985 C 429.304 398.019, 440.812 408.705, 442.919 431.117 C 443.942 441.988, 445.941 446.869, 451.757 452.698 L 455.500 456.450 456 449.643 C 456.534 442.379, 458.146 440, 462.536 440 C 466.704 440, 468 442.924, 468 452.329 C 468 457.098, 468.337 460.947, 468.750 460.882 C 473.661 460.106, 476.961 463.336, 475 467 C 474.299 468.310, 472.906 469, 470.965 469 L 468 469 468 508.750 L 468 548.500 577 548.500 C 673.219 548.500, 686.001 548.324, 686.006 547 C 686.010 546.175, 685.490 538.656, 684.851 530.290 C 683.917 518.065, 683.939 514.778, 684.967 513.540 C 686.512 511.679, 689.372 511.538, 690.795 513.253 C 691.368 513.943, 692.435 522.037, 693.168 531.240 L 694.500 547.973 726.500 548.258 C 749.437 548.462, 759.318 548.898, 761.389 549.799 C 762.977 550.490, 764.431 550.902, 764.619 550.714 C 765.580 549.753, 753.885 463.778, 751.939 457.500 C 744.346 432.992, 725.139 414.004, 701.239 407.378 C 693.516 405.236, 671.658 404.573, 649.840 405.818 C 630.568 406.919, 626.088 408.112, 620.610 413.603 C 616.441 417.782, 614.876 422.276, 613.991 432.610 C 612.823 446.236, 607.372 456.417, 597.879 462.699 L 594 465.266 594 485.650 L 594 506.034 598.411 510.267 C 605.478 517.048, 605.684 526.162, 598.923 532.923 C 592.432 539.414, 582.983 539.044, 576.664 532.050 C 570.283 524.986, 570.838 515.863, 578.023 509.712 L 582 506.308 582 487.714 L 582 469.121 578.351 468.810 C 571.245 468.206, 571.244 462.345, 578.350 460.664 C 582 459.801, 582 459.801, 582 452.123 C 582 443.166, 583.541 440, 587.902 440 C 592.236 440, 594 442.756, 594 449.525 L 594 455.392 597.434 452.064 C 602.359 447.290, 604.905 440.551, 605.948 429.519 C 606.993 418.479, 609.267 413.094, 615.394 407.151 C 622.758 400.008, 626.462 398.743, 642.392 397.931 C 652.299 397.427, 658.145 396.631, 662.024 395.261 C 695.190 383.547, 704.842 341.682, 680.086 316.926 C 669.738 306.578, 659.869 303.030, 641.383 303.012 L 629.266 303 626.477 307.250 C 624.942 309.587, 620.078 315.212, 615.666 319.750 L 607.645 328 629.355 328 C 646.719 328, 651.808 328.311, 654.782 329.553 C 667.208 334.743, 672.379 350.383, 665.401 361.669 C 663.615 364.557, 660.546 367.622, 657.641 369.419 C 653.125 372.210, 652.008 372.430, 639.167 373.053 C 623.859 373.796, 615.531 375.976, 607.374 381.375 C 603.517 383.929, 602.333 385.453, 600.900 389.716 C 594.544 408.609, 579.290 426.128, 561.500 434.963 C 550.256 440.547, 541.935 442.366, 527.500 442.396 C 509.823 442.432, 497.740 438.616, 483.500 428.498 C 472.804 420.898, 461.921 407.927, 457.636 397.672 C 454.115 389.244, 438.283 377.993, 425 374.479 C 421.975 373.679, 415.312 373.018, 410.193 373.012 C 398.265 372.997, 393.127 371.656, 387.923 367.202 C 375.705 356.744, 377.986 337.671, 392.309 330.533 C 397.340 328.026, 397.649 328, 422.317 328 L 447.242 328 440.713 321.078 C 437.121 317.271, 432.288 311.646, 429.971 308.578 L 425.760 303 409.630 303.026 C 395.537 303.048, 392.661 303.338, 386.856 305.316 M 463.625 340.814 C 462.009 343.491, 459.837 353.966, 459.332 361.525 C 457.276 392.254, 476.588 421.039, 506 431.085 C 515.120 434.200, 532.921 434.886, 543.509 432.530 C 565.993 427.528, 586.099 408.939, 593.409 386.395 C 595.826 378.942, 596.900 367.079, 595.937 358.488 C 595.086 350.899, 592.096 339.715, 591.061 340.249 C 590.752 340.408, 587.013 342.316, 582.750 344.489 L 575 348.439 575 358.036 C 575 376.792, 571.060 387.940, 560.808 398.192 C 552.013 406.987, 542.797 411.132, 530.623 411.769 C 516.258 412.521, 506.116 408.866, 495.806 399.222 C 485.129 389.235, 481.944 381.318, 481.115 362.708 L 480.500 348.916 472.269 344.522 C 467.743 342.105, 463.852 340.437, 463.625 340.814 M 489.151 363.403 C 489.476 374.719, 489.721 375.994, 492.741 382.128 C 499.189 395.221, 511.052 403.040, 525.633 403.810 C 542.227 404.685, 556.167 396.294, 563.300 381.136 C 565.950 375.506, 566.351 373.419, 566.778 363.047 L 567.261 351.322 557.881 353.695 C 539.343 358.385, 515.314 358.359, 497.651 353.629 L 488.801 351.260 489.151 363.403 M 369.483 406.478 C 344.499 412.155, 322.991 431.614, 315.449 455.363 C 313.812 460.519, 311.552 475.098, 308.043 503.141 C 305.266 525.339, 302.742 545.117, 302.435 547.093 L 301.877 550.686 308.189 549.351 C 312.683 548.399, 323.097 548.029, 344.360 548.064 C 360.783 548.091, 374.468 547.865, 374.771 547.563 C 375.074 547.260, 375.894 539.779, 376.595 530.938 C 377.312 521.891, 378.388 514.238, 379.057 513.432 C 380.582 511.594, 383.420 511.597, 384.949 513.438 C 386.098 514.823, 386.018 516.924, 383.739 545.276 L 383.516 548.052 419.758 548.052 C 439.691 548.052, 456 547.815, 456 547.526 C 456 547.237, 456 528.781, 456 506.513 L 456 466.025 452.250 463.656 C 441.091 456.605, 435.644 446.834, 434.123 431.139 C 433.310 422.743, 432.633 420.043, 430.551 416.898 C 427.108 411.694, 421.574 408.208, 414.957 407.073 C 404.923 405.351, 376.101 404.975, 369.483 406.478 M 585.185 514.684 C 582.728 515.667, 581.798 520.043, 583.496 522.635 C 586.286 526.893, 594 524.716, 594 519.671 C 594 515.958, 589.029 513.146, 585.185 514.684 M 303.907 559.326 C 301.483 560.606, 298.050 563.549, 296.277 565.868 C 289.796 574.346, 289.388 567.917, 303.370 677.500 C 317.342 787, 316.438 782.300, 324.762 788.649 C 327.074 790.412, 331.171 792.300, 334.006 792.908 C 337.589 793.676, 396.987 794, 534.368 794 C 748.677 794, 735.487 794.377, 743.160 788.030 C 750.543 781.924, 749.969 784.996, 763.618 678.331 C 771.973 613.041, 775.929 579.095, 775.511 576.277 C 774.595 570.092, 769.449 563.022, 763.500 559.775 L 758.500 557.047 533.407 557.023 C 308.315 557, 308.315 557, 303.907 559.326 M 539 955 L 539 1014 554.645 1014 L 570.289 1014 569.652 1007.250 C 569.301 1003.538, 569.011 976.987, 569.007 948.250 L 569 896 554 896 L 539 896 539 955" stroke="none" fill="#1e1e27" fill-rule="evenodd"/><path d="M 415.076 119.409 C 414.202 120.462, 413.994 137.562, 414.253 187.159 C 414.587 251.102, 414.677 253.789, 416.731 261.500 C 428.162 304.411, 457.339 334.646, 498.111 345.829 C 555.100 361.460, 616.373 328.935, 635.309 273 C 641.346 255.166, 641.281 256.054, 641.717 186 C 642.181 111.468, 642.608 115.101, 634.170 121.771 C 631.342 124.006, 627.406 126.371, 625.423 127.025 C 621.347 128.371, 612.170 127.951, 601.157 125.917 C 594.135 124.620, 593.547 124.664, 587.657 126.917 C 571.875 132.956, 552.556 139.116, 543 141.156 C 534.291 143.015, 529.259 143.406, 513.500 143.448 C 487.678 143.516, 479.385 141.553, 439.322 125.889 C 428.224 121.550, 418.492 118, 417.695 118 C 416.897 118, 415.719 118.634, 415.076 119.409 M 467.372 166.785 C 458.002 170.120, 453.454 174.472, 456.605 177.087 C 457.819 178.095, 458.539 178.121, 459.834 177.202 C 470.574 169.587, 487.956 168.126, 499.049 173.909 C 502.072 175.484, 503.124 175.630, 504.456 174.656 C 507.036 172.769, 505.370 170.412, 499.678 167.894 C 492.462 164.703, 474.916 164.100, 467.372 166.785 M 559.150 166.936 C 551.319 169.842, 549.378 171.978, 552.099 174.699 C 552.898 175.498, 554.742 175.091, 558.849 173.207 C 563.720 170.973, 565.811 170.625, 574 170.684 C 584.009 170.755, 590.011 172.291, 594.700 175.979 C 597.774 178.397, 599.848 178.560, 600.658 176.449 C 601.489 174.282, 597.395 170.161, 592 167.736 C 585.185 164.672, 566.479 164.217, 559.150 166.936 M 401.285 179.967 C 397.654 182.182, 393.934 187.591, 392.006 193.461 C 389.974 199.650, 390.471 210.899, 393.041 216.873 C 395.090 221.636, 402.695 230, 404.978 230 C 405.648 230, 406 221.045, 406 204 C 406 189.700, 405.663 178.002, 405.250 178.004 C 404.837 178.006, 403.053 178.889, 401.285 179.967 M 649 204 C 649 218.300, 649.337 229.998, 649.750 229.996 C 653.859 229.976, 661.987 220.306, 664.007 213.035 C 666.947 202.452, 664.152 190.226, 657.126 182.937 C 648.896 174.399, 649 174.130, 649 204 M 478.923 185.923 C 470.226 194.620, 482.314 208.925, 491.314 200.585 C 492.747 199.257, 494.211 197.007, 494.568 195.585 C 496.997 185.906, 485.834 179.012, 478.923 185.923 M 564.923 185.923 C 562.631 188.216, 562 189.742, 562 193 C 562 201.690, 571.576 206.258, 577.201 200.250 C 580.612 196.606, 581.383 193.689, 580.022 189.566 C 577.752 182.690, 570.022 180.825, 564.923 185.923 M 521.142 219.891 C 519.416 220.985, 511.156 247.879, 511.795 250.324 C 512.491 252.985, 515.300 253.711, 526.500 254.128 C 536.500 254.500, 536.500 254.500, 536.816 251.750 C 537.217 248.271, 534.305 247, 525.935 247 C 522.671 247, 520 246.693, 520 246.319 C 520 245.944, 521.640 240.248, 523.644 233.660 C 527.135 222.187, 527.211 221.628, 525.453 220.342 C 523.314 218.778, 522.958 218.740, 521.142 219.891 M 564.667 268.667 C 564.300 269.033, 564 271.479, 564 274.102 C 564 280.558, 562.832 283.196, 557.408 288.995 C 549.526 297.422, 541.106 301.237, 530.023 301.402 C 523.758 301.496, 523.500 301.599, 523.500 304 C 523.500 306.345, 523.859 306.519, 529.316 306.802 C 549.092 307.828, 570 290.724, 570 273.518 C 570 269.289, 566.882 266.452, 564.667 268.667 M 386.856 305.316 C 370.041 311.048, 357.176 326.525, 355.115 343.500 C 353.212 359.174, 357.790 372.953, 368.444 383.621 C 378.739 393.930, 389.619 397.958, 407.239 397.985 C 429.304 398.019, 440.812 408.705, 442.919 431.117 C 443.942 441.988, 445.941 446.869, 451.757 452.698 L 455.500 456.450 456 449.643 C 456.534 442.379, 458.146 440, 462.536 440 C 466.704 440, 468 442.924, 468 452.329 C 468 457.098, 468.337 460.947, 468.750 460.882 C 473.661 460.106, 476.961 463.336, 475 467 C 474.299 468.310, 472.906 469, 470.965 469 L 468 469 468 508.750 L 468 548.500 577 548.500 C 673.219 548.500, 686.001 548.324, 686.006 547 C 686.010 546.175, 685.490 538.656, 684.851 530.290 C 683.917 518.065, 683.939 514.778, 684.967 513.540 C 686.512 511.679, 689.372 511.538, 690.795 513.253 C 691.368 513.943, 692.435 522.037, 693.168 531.240 L 694.500 547.973 726.500 548.258 C 749.437 548.462, 759.318 548.898, 761.389 549.799 C 762.977 550.490, 764.431 550.902, 764.619 550.714 C 765.580 549.753, 753.885 463.778, 751.939 457.500 C 744.346 432.992, 725.139 414.004, 701.239 407.378 C 693.516 405.236, 671.658 404.573, 649.840 405.818 C 630.568 406.919, 626.088 408.112, 620.610 413.603 C 616.441 417.782, 614.876 422.276, 613.991 432.610 C 612.823 446.236, 607.372 456.417, 597.879 462.699 L 594 465.266 594 485.650 L 594 506.034 598.411 510.267 C 605.478 517.048, 605.684 526.162, 598.923 532.923 C 592.432 539.414, 582.983 539.044, 576.664 532.050 C 570.283 524.986, 570.838 515.863, 578.023 509.712 L 582 506.308 582 487.714 L 582 469.121 578.351 468.810 C 571.245 468.206, 571.244 462.345, 578.350 460.664 C 582 459.801, 582 459.801, 582 452.123 C 582 443.166, 583.541 440, 587.902 440 C 592.236 440, 594 442.756, 594 449.525 L 594 455.392 597.434 452.064 C 602.359 447.290, 604.905 440.551, 605.948 429.519 C 606.993 418.479, 609.267 413.094, 615.394 407.151 C 622.758 400.008, 626.462 398.743, 642.392 397.931 C 652.299 397.427, 658.145 396.631, 662.024 395.261 C 695.190 383.547, 704.842 341.682, 680.086 316.926 C 669.738 306.578, 659.869 303.030, 641.383 303.012 L 629.266 303 626.477 307.250 C 624.942 309.587, 620.078 315.212, 615.666 319.750 L 607.645 328 629.355 328 C 646.719 328, 651.808 328.311, 654.782 329.553 C 667.208 334.743, 672.379 350.383, 665.401 361.669 C 663.615 364.557, 660.546 367.622, 657.641 369.419 C 653.125 372.210, 652.008 372.430, 639.167 373.053 C 623.859 373.796, 615.531 375.976, 607.374 381.375 C 603.517 383.929, 602.333 385.453, 600.900 389.716 C 594.544 408.609, 579.290 426.128, 561.500 434.963 C 550.256 440.547, 541.935 442.366, 527.500 442.396 C 509.823 442.432, 497.740 438.616, 483.500 428.498 C 472.804 420.898, 461.921 407.927, 457.636 397.672 C 454.115 389.244, 438.283 377.993, 425 374.479 C 421.975 373.679, 415.312 373.018, 410.193 373.012 C 398.265 372.997, 393.127 371.656, 387.923 367.202 C 375.705 356.744, 377.986 337.671, 392.309 330.533 C 397.340 328.026, 397.649 328, 422.317 328 L 447.242 328 440.713 321.078 C 437.121 317.271, 432.288 311.646, 429.971 308.578 L 425.760 303 409.630 303.026 C 395.537 303.048, 392.661 303.338, 386.856 305.316 M 463.625 340.814 C 462.009 343.491, 459.837 353.966, 459.332 361.525 C 457.276 392.254, 476.588 421.039, 506 431.085 C 515.120 434.200, 532.921 434.886, 543.509 432.530 C 565.993 427.528, 586.099 408.939, 593.409 386.395 C 595.826 378.942, 596.900 367.079, 595.937 358.488 C 595.086 350.899, 592.096 339.715, 591.061 340.249 C 590.752 340.408, 587.013 342.316, 582.750 344.489 L 575 348.439 575 358.036 C 575 376.792, 571.060 387.940, 560.808 398.192 C 552.013 406.987, 542.797 411.132, 530.623 411.769 C 516.258 412.521, 506.116 408.866, 495.806 399.222 C 485.129 389.235, 481.944 381.318, 481.115 362.708 L 480.500 348.916 472.269 344.522 C 467.743 342.105, 463.852 340.437, 463.625 340.814 M 489.151 363.403 C 489.476 374.719, 489.721 375.994, 492.741 382.128 C 499.189 395.221, 511.052 403.040, 525.633 403.810 C 542.227 404.685, 556.167 396.294, 563.300 381.136 C 565.950 375.506, 566.351 373.419, 566.778 363.047 L 567.261 351.322 557.881 353.695 C 539.343 358.385, 515.314 358.359, 497.651 353.629 L 488.801 351.260 489.151 363.403 M 369.483 406.478 C 344.499 412.155, 322.991 431.614, 315.449 455.363 C 313.812 460.519, 311.552 475.098, 308.043 503.141 C 305.266 525.339, 302.742 545.117, 302.435 547.093 L 301.877 550.686 308.189 549.351 C 312.683 548.399, 323.097 548.029, 344.360 548.064 C 360.783 548.091, 374.468 547.865, 374.771 547.563 C 375.074 547.260, 375.894 539.779, 376.595 530.938 C 377.312 521.891, 378.388 514.238, 379.057 513.432 C 380.582 511.594, 383.420 511.597, 384.949 513.438 C 386.098 514.823, 386.018 516.924, 383.739 545.276 L 383.516 548.052 419.758 548.052 C 439.691 548.052, 456 547.815, 456 547.526 C 456 547.237, 456 528.781, 456 506.513 L 456 466.025 452.250 463.656 C 441.091 456.605, 435.644 446.834, 434.123 431.139 C 433.310 422.743, 432.633 420.043, 430.551 416.898 C 427.108 411.694, 421.574 408.208, 414.957 407.073 C 404.923 405.351, 376.101 404.975, 369.483 406.478 M 329.191 417.750 L 323.329 423.500 328.914 418.575 C 331.986 415.867, 334.928 413.279, 335.450 412.825 C 335.972 412.371, 336.097 412, 335.727 412 C 335.356 412, 332.415 414.587, 329.191 417.750 M 585.185 514.684 C 582.728 515.667, 581.798 520.043, 583.496 522.635 C 586.286 526.893, 594 524.716, 594 519.671 C 594 515.958, 589.029 513.146, 585.185 514.684 M 303.907 559.326 C 301.483 560.606, 298.050 563.549, 296.277 565.868 C 289.796 574.346, 289.388 567.917, 303.370 677.500 C 317.342 787, 316.438 782.300, 324.762 788.649 C 327.074 790.412, 331.171 792.300, 334.006 792.908 C 337.589 793.676, 396.987 794, 534.368 794 C 748.677 794, 735.487 794.377, 743.160 788.030 C 750.543 781.924, 749.969 784.996, 763.618 678.331 C 771.973 613.041, 775.929 579.095, 775.511 576.277 C 774.595 570.092, 769.449 563.022, 763.500 559.775 L 758.500 557.047 533.407 557.023 C 308.315 557, 308.315 557, 303.907 559.326 M 539 955 L 539 1014 554.645 1014 L 570.289 1014 569.652 1007.250 C 569.301 1003.538, 569.011 976.987, 569.007 948.250 L 569 896 554 896 L 539 896 539 955 M 270 931.851 C 272.475 934.052, 275.850 936.631, 277.500 937.582 C 281.593 939.941, 280.678 939.110, 272.500 933.043 C 266.880 928.873, 266.387 928.638, 270 931.851 M 514.500 1011.936 C 521.650 1012.262, 528.063 1012.886, 528.750 1013.323 C 529.438 1013.760, 530 1013.698, 530 1013.184 C 530 1011.641, 524.379 1010.990, 512.625 1011.171 L 501.500 1011.343 514.500 1011.936 M 578.160 1015.250 C 578.299 1018.934, 578.374 1019.067, 578.723 1016.250 C 578.945 1014.462, 579.575 1013, 580.122 1013 C 580.670 1013, 580.840 1012.550, 580.500 1012 C 579.104 1009.741, 578.010 1011.261, 578.160 1015.250 M 576.361 1022.039 C 575.689 1022.711, 567.720 1022.976, 553.755 1022.789 C 541.894 1022.630, 532.398 1022.837, 532.653 1023.250 C 532.909 1023.663, 542.711 1024, 554.437 1024 C 572.166 1024, 575.965 1023.747, 577 1022.500 C 578.412 1020.799, 577.941 1020.459, 576.361 1022.039 M 597 1021.630 C 597 1022.298, 608.161 1027.172, 608.626 1026.707 C 608.834 1026.499, 606.303 1025.164, 603.002 1023.739 C 599.701 1022.315, 597 1021.366, 597 1021.630 M 610.468 1027.948 C 611.114 1028.994, 620.931 1032.402, 621.541 1031.793 C 621.767 1031.566, 619.243 1030.407, 615.932 1029.216 C 612.622 1028.024, 610.163 1027.454, 610.468 1027.948 M 433 1035.582 C 428.325 1036.845, 425.335 1037.906, 426.356 1037.939 C 429.015 1038.026, 440.323 1035.017, 441.450 1033.923 C 441.972 1033.415, 442.197 1033.064, 441.950 1033.143 C 441.702 1033.222, 437.675 1034.319, 433 1035.582 M 627 1033.912 C 629.057 1035.342, 642.638 1038.308, 644.219 1037.673 C 644.924 1037.389, 644.582 1037.122, 643.460 1037.079 C 641.727 1037.012, 636.694 1035.852, 627.500 1033.402 C 625.880 1032.970, 625.785 1033.067, 627 1033.912 M 400 1040 L 387.500 1040.595 399.500 1040.698 C 406.100 1040.754, 412.625 1040.440, 414 1040 C 415.848 1039.408, 415.978 1039.226, 414.500 1039.302 C 413.400 1039.359, 406.875 1039.673, 400 1040 M 654 1039.974 C 655.375 1040.368, 665.950 1040.937, 677.500 1041.238 C 691.743 1041.610, 694.960 1041.535, 687.500 1041.003 C 670.160 1039.769, 651.256 1039.188, 654 1039.974 M 375.728 1041.722 C 377.503 1041.943, 380.653 1041.946, 382.728 1041.730 C 384.802 1041.513, 383.350 1041.333, 379.500 1041.328 C 375.650 1041.324, 373.952 1041.501, 375.728 1041.722" stroke="none" fill="#c6b4a5" fill-rule="evenodd"/></svg>